<mxfile host="65bd71144e">
    <diagram id="1BQghb0AWwPz4y2SINJb" name="Page-1">
        <mxGraphModel dx="738" dy="481" grid="1" gridSize="10" guides="1" tooltips="1" connect="1" arrows="1" fold="1" page="1" pageScale="1" pageWidth="850" pageHeight="1100" math="0" shadow="0">
            <root>
                <mxCell id="0"/>
                <mxCell id="1" parent="0"/>
                <mxCell id="7" value="" style="rounded=0;whiteSpace=wrap;html=1;dashed=1;" parent="1" vertex="1">
                    <mxGeometry x="160" y="530" width="490" height="90" as="geometry"/>
                </mxCell>
                <mxCell id="8" style="edgeStyle=none;html=1;entryX=0.102;entryY=0.011;entryDx=0;entryDy=0;entryPerimeter=0;startArrow=classic;startFill=1;endArrow=none;endFill=0;dashed=1;" parent="1" source="2" target="7" edge="1">
                    <mxGeometry relative="1" as="geometry"/>
                </mxCell>
                <mxCell id="9" value="&lt;font style=&quot;font-size: 15px;&quot;&gt;Transmit local parameters&lt;/font&gt;" style="edgeLabel;html=1;align=center;verticalAlign=middle;resizable=0;points=[];rotation=-90;fontSize=15;" parent="8" vertex="1" connectable="0">
                    <mxGeometry x="-0.0495" relative="1" as="geometry">
                        <mxPoint x="-20" as="offset"/>
                    </mxGeometry>
                </mxCell>
                <mxCell id="12" style="edgeStyle=orthogonalEdgeStyle;html=1;startArrow=none;startFill=0;endArrow=classic;endFill=1;entryX=0;entryY=0.5;entryDx=0;entryDy=0;" parent="1" source="2" target="7" edge="1">
                    <mxGeometry relative="1" as="geometry">
                        <mxPoint x="120" y="520" as="targetPoint"/>
                        <Array as="points">
                            <mxPoint x="120" y="260"/>
                            <mxPoint x="120" y="575"/>
                        </Array>
                    </mxGeometry>
                </mxCell>
                <mxCell id="2" value="" style="shape=image;verticalLabelPosition=bottom;verticalAlign=top;imageAspect=0;aspect=fixed;image=data:image/png,iVBORw0KGgoAAAANSUhEUgAAAgAAAAIACAYAAAD0eNT6AAAABHNCSVQICAgIfAhkiAAAAAlwSFlzAAAOxAAADsQBlSsOGwAAABl0RVh0U29mdHdhcmUAd3d3Lmlua3NjYXBlLm9yZ5vuPBoAACAASURBVHic7d13vB5VnfjxTwohgTRaaCIdFAIIiCDFQhN1FRVQQEQWFHFhiQuu2MEKKiJY1rLiz1VXKSsqoigKuhQVKS4QqpQA0gmpQOrN749zIyGm3PucM+dM+bxfr+/rhl2fme/MPKc8Z2bOAUmSJEmSJEmSJEmSJEmSJEmSJEmSJEmSJEmSJEmSJEmSJEmSJEmSJEmSJEmSJEmStLQhpROQ1JMRwPrABsCE/n+v2//vtYAxwNgl/o7v/9zw/v/bsswA+vr/Pb3/v2f2x4z+eAx4GHgUeKQ/HgMWJjsySVnYAZDqaxTw4v7YrD827f+7ITC0XGrPswB4ALgXuKf/773AX4HbgXnlUpO0PHYApHrYGNgF2AHYBtiO0NAPK5lUAguAu4DJwC39f28kdBgkFWQHQMpvDWB3QoP/0v6/E4pmlN+jwJ/741rgOsItBkmZ2AGQqjcG2BXYtz92pD7D93VyL/DbJWJa2XSkdrMDIKU3HNgNeB1wAGFY3wZ/cBYCNxA6Ar8gjBL4oKGUkB0AKY01gTcQGv39CMP8Smcq8CtCZ+DXwFNl05EkddmawJHAz4G5wCIjSywArgYmEV59lCSpcmOBYwhD0wso3xh2PeYRRgaO5rm5DiRJSmIosCfwTWA25Rs9Y9kxB7iAcCtm+DKvpCRJA7ApcAbwEOUbN2Nw8QDwaWDzf7iqkiQtw1DCq3oX4BB/G2Ih8BvgEJo/qZIkqQLjgVOA+yjfaBnVxN3AyfiGhiSJMAXvlwgL3pRuoIw8MRv4cv+1lyR1zE7AD4H5lG+QjDIxH/gBsD2SpNbbCbiYsOxt6QbIqEf0ESYY2hWpQ5wJUF2xI3Aq8Eba871fADwIPExYXOcR4HHCWwszgen9f2f1x9P9n5u3xL8XWx0Y0f/vccBIwnMRa/T/HQ+sDawHvADYgLAk8bq0a5rjS4CPA38pnYhUtbZUhNLyvAj4LPAmmvt9n0JYRvc24B7Cojn3El51W1AuLSC8b78JsEV/bNkfLyK8RtlEi4CLCB3GWwvnIlWmqRWitDLrAacRZu1ryqQwCwgNzrWEhXAm98fMkklFGEdYCGkHwn32nYHtaM716AO+C3yMMMoiSaqx0cAnCEPepe8tryyeAn5CeDVtL8IwfNutDrwK+DBhDYUnKX8dVhazCbcFunB9JKlxhgBHEH6plW4wlhezCI3eyYSHEdt077xXQwnPZ3wAuAx4hvLXaXnxN+CdOHIqSbWxPXAl5RuIZcXdwDmEJYJXreoEtMhIwkyMZxOecyh9/ZYVV+Org5JU1DhC41q3d/n/AnyQ8CCc4uxAuAd/PeWv65IxH/giMKa6Q5ckLcubqNdw/y2EhmqrKg+647Yg3Iu/g/LXe3H8DTioyoOWJAXrEhbqKV3xLwKeIIxA7FDpEWtZdgbOAh6j/PdgEXAhMKHSI5akDnsnMJWyFf0CwmQxB/HcxDkqZwRhpb/fEFb+K90hPKzaw5WkbplAmL63ZOU+Ffg8YdIb1dPmwOmEhrjkd+UnhJEqSVKEfyJMc1uqMr8ZeDewWtUHqmRGAe8Bbqfc9+Yx4PVVH6gktdFqwNcpt2jPlcBr8Z3vJhtCaISvoMx3qA/4CuHVRknSAGxHmV9vfYSJevao/hCV2e7ApZTpCNwCTKz+ECWp2Y6mzGxwP8en+btgF8osB/0M4bstSVrKaoSFV3I3/FcAL6/+8FQzuwCXk//79m28JSBJf7c1YZg0Z0V8A2HKWXXbawgzN+b+7jV1qWRJSuYAYBr5Kt+HgKNwIR49ZyjwduAB8n0PnyJ89yWpk44l3zz+zwBnAGOzHJmaaDXgNOBZ8nwnFwCn5DgwSaqLkcB/ke/X1sXAxlmOTG2wBeGh0Fzfz28Cq2Q5MkkqaG3gD+SpWB8E3pznsNRCbyB8h3J8V38HrJXnsCQpv82Bu8gztHoWLtWqeGOBr5FnnYE78eFASS20C3lWbrsbeEWmY1J37A7cSvXf30eAnTIdkyRV7g3A01RbcS4EvkiYB16qwkjCyFLVkwjNAPbJdEySVJkjqP5J/7uBPXMdkDpvH6p/NmAucGiuA5Kk1I6l+nunFwLjcx2Q1G8c8D2q/W73Af+S64AkKZXjqXao9BlgUrajkZbtSGA21XYC/J5LaoyPUe0vo5uAF2c7GmnFtgPuoNpOwMnZjkaSelR14/8DwoxtUp2MAX5Etd/9D2c7GkkapFOorvKbB5yY71Cknkyi2ode/z3foUjSwEyiukrvcWDvfIciRXkF4TtbVXk4Kd+hSNKKnUB1D/z9H7BRvkORktiC6iYO6gOOzncokrRsb6e6xv+XOJ2vmmsscCnVlI0FOE+ApIL2AeZQTQX3LWB4vkORKjEM+AbVlJF5wGvyHYokBbsAs6hmeNNXntQmQ4DTqKYTMBPYMduRSOq8rajmIaf5hIlVpDY6hmreEHgEVxGUlMHawD2kr8SeBd6Y8TikEt5MmOc/dfm5g1A2JakSqwBXkL7ymgXsm/E4pJJeTTW3z64GVs14HJI65Fukr7SmA7vmPAipBvYiLPubujz9v5wHIakbPoiNv5TSboQykLpcvS/nQUhqtzeSfllfG38J9iD97YAFwAE5D0JSO21B+l8pMwi/fiTBq4CnSVvGphHKriT1ZCRwI2krprnAfjkPQmqA/QhvwqQsazfjypmSevRfpK2Q5gMHZj0CqTkOJAzfpyxz52Y9Akmt8B7SVkR9wDuzHoHUPMeSttwtAv456xFIarTtST8c6RKm0sCcRtqy9wyhTEvSCo0EbiJtBfStrEcgNd9XSFsGb8PnASStxH+QtuL5BWFFNEkDN4z0Swl/NesRSGqU1xHu1aeqcCYD47IegdQeY4BbSFce+4A3ZD0CSY2wPvAE6Sqbh4GNsh6B1D5bAE+Srlw+Bqyb9Qgk1d7PSFfJzCPMcCYp3qsJZSpV+bw4b/qS6uztpL3XeELe9KXW+1fSltG3501fUh2tAzxOuorlB3nTlzrje6Qrp0/irQCp835MukrlRmBU3vSlzhgN3E668nph3vQl1ckhpKtMZgFb5k1f6pxtSLt64EF505dUB2OAv5GuInln3vSlzjqSdOX2YWBs3vQllXYW6SqR8zPnLnXdD0lXfs/KnLukgiaS7rWie/AXhJTbeGAKacrwfGCHrNlLKmIIcA1pKo4FwO5505fU71XAQtKU5SsJdYOkFjuKdEOHX8ibuqSlfI505fnIzLlLymgU8ABpKovb8ZU/qbRVgVtJU6YfJTwcLKmFTiXd0P+umXOXtGy7EcpkirJ9aubcJWWwHuneH/5c5twlrdiXSVO2ZxEWBpPUIt8iTQUxBVgtb+qSVmI0cB9pyvi3MueuQnzqsz5WBzYBNu2PDQnz9K8JrNUfowiv/wCM6P8MwNOE1/oApgPPEub6ntr/dxYwCRiWIM8DcTUxqY7eQJqyuZDwWuCtCbYlaQmjgJcCxwBnA1eQdjGeKuOnFZwPSen8nDRl/aLciUtttB6hZ34GcDUwh/INeS/xNGFkQlJ9bUYYAYwt732EHyqSBmEk8BrgS8AdlG+4U8VHU54kSZU5jTRl/meZ85YaaTxhgp1LCL+USzfWqeMBfPBPaopRpJkm2FEAaTlGA28nPHTT1GH9gcY7Ep0zSXkcQZqyf0nuxKU625ZwP38q5RvmHHEjMDTJmZOUyxDgetLUATtlzl2qlVHAscANlG+Qc8crE5w/SfntS5o64L9zJy7VwTrAKcBDlG+IS8Sl8adQUkGXEl8PLCC8XSB1wsbAN0jzOk2T42WxJ1JSUTsRHuaLrQvOzp24lNsEwv39rjf8i3C2P6ktLia+PphNmI1Uap01gbOw4V8cffjgj9QWO5NmFOCU3IlLVRoOnEB3nugfaPw45qRKqp0UowD34htBaon9CYtdlG5s6xbPAJtHnFdJ9fNS0tQPr8+duJTSBOBHlG9o6xgLgLf1fmol1dhvia8jnBhIjXUkYXnc0g1tHWMq8MbeT62kmnsd8fXEQlwUrDWGlE4gkw2BcwmL9NTZXOAewjze9/X/fZTQOE8ldF6m9f9v5xHWHRgGjCUsQjSq/9+rAGsA6wOb9MfG/bFR//9/sXuA84BzgCcqOSpJdTAEmAxsE7md04EPx6cjVe8t1PNX/wzgV8BnCcPuLyY8lFi1oYQlijcnvP0gqTuOIb7uepDww0OqrdHAtynf0C+O6cCFwL8A22MBkpTfSOAx4uuz/XInLg3Ui4HbKd/o30kYLnsFeX7dS9LKnE583faD7FlLA3AQMJNyjf69hGH9l1R9oJLUg80ID/PF1HNPA2NyJy4tzzDCNL4pZrwabMwFzgf2oTsPVkpqrl8TX+8dnT1raRlGAz8nf8P/MPAhwqqBktQUbyG+/rsse9bSUtYHbiBvw38zcBQwovrDk6TkhgOPEFcPzsMFglTQROB+8jX8kwnPGDjML6npzsLbAGqoXYGnyNPw3w28HRfCkNQeOxNfN/4ie9bqvFcQJtKpuuGfDZxGeHdWktpmMvG3AdbInrU66wDCinVVNvx9wHeAdTMdkySV8BHi68sjsmetTjoAmEP1w/175zogSSpoM+LrzB9mz1qd80qq/eW/EDgTWC3XAUlSDdxIXN35JE5trgrtSrWz+z0AvCrXwUhSjXyc+Dp0t+xZqxMmUu3T/ufjQyySums74uvRT2bPWtHq/j77+sCfgBdWsO35wEnAVyvYtgZnXcIIzG6EhZw2JcyuuDpOtqRmm0eYN/8JwjohdxDqtN8BjxfMa2l3E5YI79X1wB6EsrtFf7yQUI7XIZTxccBYwu2CxX8BniU829VH+LE3rf/vU4Slh+/vj/v685wfkacaYjTVzfD3MOHLqnLWBI4HrqXM+g2GUTL6gD8SlgevwwjkmcQfz4LIbQwk5hFmYv0RYRr2vQlthVpkGNXN7X8dYWRBZWxAmIFsNuUrYcOoQ8wiNMAl66V9l5FXU2I+YQTiHOAN2CFovDOo5ovyU8KwsvJbBfh3bPgNY3kxCziZME9/biOpfn6VXDEXuJxQ32ya8iSpegdRzZDwOfiqSilbEv+qkWF0Ja4n7n58r37VY751j2sJHauN0p0qVeHFVPO632kZj0HPdyB5pm02jDbFDMJwdk4nJ8q9rrEQ+CXwZsKIpGpkNHA7aS94H2EYSGW8izwPBhlGG2M+cAz5pHgdsCnxMPApnO69Nr5N2gvcB/xr1iPQkt6FT/cbRmz0ka8TMIQwq1/pY84ZzwLfBLZKcP7Uo7eQ/sL6y7+cA/GXv2Gkivnkux1wcaZjqlssBM4Dto4/hRqMDUjf6zw16xFoSVvgPX/DSB0zydM4fbDQ8dUlFgIXUOYhzE5K/eTpOXnT1xJWwaf9DaOquJ7qXxHcqwbHWYeYA3wGXxuv1DtJe9EuwVf9SvoA5QuuYbQ5TqJaq1L9kutNioeAI6n/tPmNM4G0Q//XYW+tpA0IE5mULrCG0eaYCaxHtX5Xg+OsW/wG2CTinNbS0IL7PgdYK9G2HgHeSFh0Q2W8H6fglKo2hvC+fpUuqnj7TbQvcAth7QZHAyLtT7qe2Txc2Ke0NXGKX8PIFbOodgGh1Qir8JU+zrrGFcALej67NVJiBGA48KWE2zsJuCbh9jR4h+HtFymX0cChFW7/GcLcAwsq3EeTvRr4P/LP1JhciaGMfwW+nGhbFwBvS7Qt9e5a4GWJtnULcC7wW2AK3tZRs61OuHe8L2FyrImJtvtHYPdE21qeQwllcbVBfGYRcC9wZ//fe4AHCM97Te3/O49Qruf1f2YE4TyNANbujwnAC4HNCK/kbU397sEvAs4mvDo5byX/WxGGiqeSZhjmAeqxjnbXrUuaGf/mAO+l7HMpUpWGAccTVquLLS99wDoZcp5IeLtqeWX8MeBC4ERgT2BshbmMB14F/BvhOYUnlpNT7riK0GHRSpxFmhO+kPBFUHlvI03j/+rciUuF7E2aTsAhGXPeBDgK+CjwSeAIYBvKPhA3BNiW8ADy7wkzJpbqBEwBdqjyYJtuQ8K8yylO9pmZc9fyfYn463lc9qylsk4gvtx8MXvW9bYmcDThIb2F5O8EzCZMg65l+BppTvLdDO6elKp1KXHX82Yc9lf3DANuJa7sXJI96+bYiDBakftthgXAuzMcX6NsTLr7Xntnzl0rdjdx13RS/pSlWjiJuLJzZ/6UG2c4cBDwv+TrBPQBH85xcE3xDdKc2O/kTlwrFTub4zb5U5ZqYSJxZefx/Ck32l7Ar8nXEfBWNeHpyGeIP5kzCE+cq15iR3bG5E9ZqoWxxJWdOflTboWXA1eTpxPwhUzHVFunkeZEfiBz3hqY2OsqdZnlp5y3AH+l+k7A6bkOqG5GEYapYk/g3YRVqlQ/VmBS7yw/ZY0EPkH1KyB+PNcB1cmxpDl5h+dOXANmBSb1zvJTDy8iTOhTZSfgmGxHUxM3EH/SJuNrYnVmBSb1zvJTH0MIbyWleGNtWbGADs0TsDNpTtpBuRPXoFiBSb2z/NTPToRXLKvoBMwGdsx3KOWkePXvZlx7ue6swKTeWX7qaSzwE6rpBEwhLHjUWqMJr+3FnqijMuetwbMCk3pn+amvIYQJfaqYVvhywiRFrfR24k/Qw4TlIVVvVmBS7yw/9Xcw6daxWTJaO1HQxcSfnA9lz1q9KF2BpS6URrOun/tXDnsQP+vp0tEHvC7nQSytivvr44FHiXtvfx5hMQenuqy/2Eoo9jtoJVhW6evn/pXLiwhD9xsk3OYTwPaENjO7Kl6vezPxk/b8BBt/SVJ93AG8Gvhbwm2uA3yXQh25KjoAKV7b+88E25AkKaW7CJ2ARxJu8zWESfOyS93rGAlMBVaL2Ma9wBY4tNsUpYcw/Z6UVfr6uX+VsB1hieE1Em1vBrAt8FCi7Q1I6hGAVxLX+AOcj5W6JKm+bgH+ibDSbQrjgK8l2taApe4AHJBgGxck2IYkSVX6A/BO0v1gPZCGz3x7B3GvRdyRP2VFKv0aU8rXcozmXT/3r9JOI115eoD4UfQBSzkCsAGwdeQ2fpIiEUmSMvkEcFGibW0EvC/RtlYqZQdgzwTb+GWCbUiSlMsi4GjCA+wpfIi0cw0sV8oOwO6Rn58J/ClFIpIkZTQDeBthErtYo4GPJtjOStWpA3AZMD9FIpIkZXY98PFE2zoG2DjRtpYrVQdgFPCSyG1ckSIRSZIKORP4c4LtjAA+kmA7K5SqAzARWCVyG39IkYgkSYUsBP4ZmJtgW0cBmyTYznKl6gDsEPn5mcDkFIlIklTQbcDnE2xnFSp+IyDlCECMPxF6TpIkNd0ZwP0JtnM0YZbAWruCuMkPPps/ZSXiRCZS7yw/7XUQaSYHen/uxAfrMeIO8ND8KSsRKzCpd5afdruG+Gs8hWpW7k1ideIP8MXZs1YqVmBS7yw/7bYXaUYB9s+d+EBNJO7AngWGZ89aqViBSb2z/LTfb4m/zudlz3qA3kDcgd2aP2UlZAUm9c7y036vIv46zwXWTp1YivsKm0R+fkqCHCRJqqPfE2YJjDECODg+ledL0QHYMPLz9yXIQZKkujozwTZq2QGIHZaYkiAHSZLq6sfAw5HbeCWJbwPUoQPwSIIcVE7sAk5jkmQhNc/YyM+nWHlOeSwAvhu5jeHAm+NTeU6KDsCakZ9/KkEOKufpyM9vlCQLqXk2jvz87CRZKJdziX9w840pElksRQdgrcjPP5kgB5UzNfLz+yXJQmqe2O++dWez3AtcFbmNVxK/8N7fpegAxA5j+SVutnsiP/8uYFiKRKQGGUZY8z1GbNlTfhdGfn4MsFuKRCBNB2BE5Odjh5BV1h2Rn58IHJciEalBjge2idxGbNlTfhcBfZHbqNWo6TTiJjgYnz9lJXQoaSa52Cd34lIh+xIe4IstN8lfC1MWsesDXJk/5eV7hriDGZU/ZSW0IaFHm6ITcALeDlB7DQMmkabxXwismzd9JfIx4q7909Ro+vwFxB2MFX7z/YH4Cm1xTAZOItwa8BVBNd0YYDvgZMK056nKSezDZCpnV+Kv/44pEqlNL0KNdj7w8kTb2hb4YqJtSW11fukE1LPrCa+/x7xCvyvwl9hEUjwEGDsZRexDhCrvv/CdZCmXWcD3Syehni0E/hS5jZ1SJJKiAzA38vOrJshBZU0HvlM6Cakj/hOYUToJRYntALw4RRIpOgCxU8Emm9RARX0amFk6CanlZgGfK52Eol0b+fnadABiRwB80KsdngA+WzoJqeU+BTxeOglFuzHy82sBE2KTSNEBiP3VFzuVsOrji8CfSychtdS1wFmlk1ASTxJ+NMXYKjaJFB2A2Lngky5vqKIWAO/A+5NSatMJZWth6USUzG2Rn39BbAJ16AA4AtAudwGHYUUlpbIQOBz4a+lElNSdkZ9vRQdgvQQ5qF6GlE5AkmruwcjPRy+lnqIDELua36YJclB9bA38EGd4lFIZBvyIBPd8VSsPRX5+/dgEUnQA/hb5eTsA7TGcMEHJuNKJSC0zDvgezt7aJrEdgOiF9FJ0AKZEfn6TBDmoHt4P7FI6CamldiWsk6F2iL19PjY2gTp0ADbFXm0brAt8uHQSUst9BFindBJKIvYV+lZ0AEbiva02+AhO6iRVbSx2tNtiVuTnR8cmkKIDMJv4mam2T5CHyhkP/HPpJKSOOAafs2mDZyI/Hz1ynqIDAGGd6xh2AJrtnSTojUoakDHAkaWTULRFkZ+vzevWZxMOptf4df6UldAfibv+S8bNwCRgW2D1nAchVWB1wnd5EnAL6crJ1TkPQpUYS9x34LH8KS/b0cQdyAx8b7ypNgT6iK/Q5gDvJd2olFQ3w4DjCQuoxZaXhYQHb9VcrekA7EL8F/ol2bNWCoeSpvF/de7EpUL2Jk0n4JDciSup9Yi7/vfHJpDq19ZkYH7kNvZIkYiy2z3BNt4H/C7BdqQmuAI4OcF2UpQ9lRP7Gt/s2ARSdQCeBf4SuY29UySi7LaO/PwtwLdSJCI1yNeJXw0utuyprNgOQOxrhEnvt/4h8vP7AqukSERZbR75+XMJzxBIXbKQ8N2PEVv2VFbsSri16gBcE/n5sTik1USxX+LfJMlCap7LIj+/dpIsVMqGkZ+PXYivViMAAK9NsA3lFfuqXuySmFJTPRD5eefeaLYXRH7+kdgEUnYAHgbuiNzGW1Ikoqxib9tED2NJDRU7F/yIJFmolI0iP/9wbAKp37n+VeTntwR2SpGIJEk19qLIz9euA3Bpgm28NcE2JEmqs9gOwJQUSaQ0EniauMkN7sPZ4JokdjITqcssP900gfhrH/0QaOqGdg5hkosYmwD7xKciSVItxd7qnkrN3gJY7MIE23hXgm1IklRHu0V+/s4USVTRAfgZYZ7rGG8iDJFIktQ2L4v8/OQUSVTRAZhB/NsAI4B3J8hFkqQ6GQa8PHIb16VIpCqHE/+Aw2OEhwpVb6UfYordv9Hs6+f+1TS7EX/dd0iRSFVP2/8EmB65jQmEjoQkSW2xX+Tn5xC/kBRQXQfgWeC8BNs5CV8JlCS1x2siP/9nYH6KRKpsXL+RYBvbAgcn2I4kSaWtT/z9/8tTJALVdgBuAm5MsJ1PAcMTbEeSpJIOIb7dbUQHANKMAmwFHJZgO5IklXRI5OdnE24BNMIowtP8sU883otvBNRV6aeYSz8F3/WI5f7L7l/5bAn0EXe9f5oyoapHAJ4F/iPBdjYlPBAoSVITHQ0MidxG0g5AbDIDsQ5wP2E0IMZsYGsSLIGopGJ/hcR+B/0VVFbp6+f+1QSrENrB9SO2sRBYjwRrACyW4xW7J4DvJtjOaOCMBNuRJCmnQ4hr/AGuJmHjn9MLCZMXpLjnuH/m3LVipe9h5rzfbdTv+rl/NcENxF/r47JnndBXSFPh3Ausnjl3LV/pCqxk42fEc/9l96/q7U38dX4WWCN34imtDzxDmkrnrMy5a/lKV2AlGz8jnvsvu39V73fEX+cUM+sWdyZpKp2FhF6VyitdgZVq+Ix6XD/3rzrblzTl7LVVJJf7CdI1gL8CayXY1kPA9sBTCbal3sVWQqWfolac0tfP/avO/khY/S/GPYQJ8fri03m+3AvtTAM+nmhbGwL/mWhbkiSl9DbiG3+Ar1JB41/KMOBm0g1Bvi9v+lqKQ5hS7yw/7TQKmEL89Z0JjMubevVS3RdZBMwDXpE3fS3BCkzqneWnnT5NmvbtnNyJ5/ID0nUCHiHcElB+VmBS7yw/7TMRmEv8tZ0DbJQ592zWIs1CQYvjBsJsgcrLCkzqneWnXYYTVutL0aalWEen1o4gXQdgEfBzwjMGyscKTOqd5addPkSatmwuYQbd1ruUtJ2Ar+VNv/OswKTeWX7aY1fCM2m2Y4OwLvAoaTsBn8x6BN1mBSb1zvLTDuMJ09SnaL9mEtrFzjiQtB2ARcApWY+gu6zApN5ZfppvCHAR6dquD+ZNvx6+SfpOwIlZj6CbYoe8xuRPWaqFscSVnbn5U9YyfIJ0bdYUYGTW7GtideBW0ncCHAmo1jTirs82+VOWamE74srO1PwpaymHEGbpS9VeHZg3/XrZGphB+k7Ap3IeRMfcTdy1mZQ/ZakWTiKu7NyZP2UtYQ/gadK1Uz/Om349vYm0ParF8TV8RbAKvybuutyC10XdM4z4Ec9fZs9ai21P/OjnkjEd2CDrEdTYZ0nfAVhEmCfAyYLSOof463J89qylsk4kvtyclT1rAWxJmH02Zdt0bNYjqLlhwM+ophNwA04bnNKhxF+TucA+uROXCtmXNO+LH5w7cfEiwlL0qX+YuqzzUlYHrqOaTsAjuIBQKhuS5pbNXOAEvB2g9hpGeOYlReO/kI69K14DE0k/Z82jwIScB9Ek65FmScVlxXxcSjiVP5DuukwmPBw1EV8RVPONITztfzJp33K6KudBiL2AJ0nbBvUBr895EE20DeF1lyo6AYsIT16ule1o2mkS+n4KwgAAHIpJREFU1V0fwzD+MU5AuRxKWJkv9TU8PedBNNkuVPN64OL4G96DjjEemEX5StEwuhAzgXGoakOAj1PNW2m/wdudg7IXad+5XDoWAl8iPHugwUvxNoBhGCuPL6KqjQcupprrdz+wdr5DaY/9qWYoZsm4t38/GpwJhF8mpStHw2hzTAfWQVV6KfBXqrl+M4Ed8h1K++xPtSMBi+P7ODHDYJ1C+QrSMNoc/46qMgz4KOmW9F065gMHZDuaFtuLap8JWByzgI/Q0cUZejAcuJbylaRhtDH+hPeNq7Itad9mWla8K9vRdMAuVPt2wJJxH3AkFr6B2IowTFm6sjSMNsU0wgx0SmsU8Bmq+9W/OD6a64C6ZBtC45yrEN5OeCVkaI6Da7DXAgsoX2kaRhtiAaFMKZ0hwFuBe6j++rkYXYXWA/5M3gJ5K3AMsGqG42siOwCGkS7sAKS1F/BH8ly7z2c6pk5bDfgp+QvmI4ShHafkfM7WeAvAMFLHNMLtNfXuVcDl5LtmTvST0VDg01QzacPKYh7wP8Br6PbtgeHkH40xjK6EDwEO3iqEof6ryXed+oAP5Dg4/aMDKfsL9H7gC4SHFLvmA5SvJA2jzfF+NBCbAKeSfuW+lcUCfNq/uK0Ii8qULqz3EO4B7Q2MqPSIy1sHJwIyjKpjBs4itzzrAO8GrqTMSPBM4J8qP0oNyGrA1ylfYBfHLMJzCicCOxOGy9vkS5Q/x4bRhXAq4GAosCPwQeAawnTupa7JfYQVTBtlSOkEMngj8G3qN33mbMI9vRuAm4FbgDsIs0U1zTjCgkqjSycidcAs4AWEX5xdsiahwd+J8CT/XoQ5+0u7EjgYeKJ0IoPVhQ4AhFcFzwVeVzqRlZgHTOmP+/rjUcKER0/2/53Z/79bQKgI6uAE4Culk5A65ATga6WTSGQs4eHGUYTbG+sQ1hbZCNgM2JxwW/eFpRJcjkWEW7wfJdTHqrnDgccpP4RnLD9uBiYRpuZ0ZUY13eqE7/Ikwihf6fJlpIkngdejxlkb+B7lv0DG82MO8F66/Rql2m0YcDwwl/Llzeg9fkW4BaMG2xu4ifJfJiM0/q9e8eWSWmNv7AQ0MWYCx9KdW+etNww4jvDwRukvV5fjuJVdKKllTqB8uTMGHpcS5hZQC40nPMzxNOW/aF2Lm3HYX90zjLCmSOnyZ6w47gfevJxrqJZZDzgHeJbyX7yuxKQBXRmpfU6ifPkzlh1PE6aWX225V0+t9QLgqzgikCO2GeA1kdpmIuXLn/H8mA98A9hgBddNHbE28DHCu/ilv5htjTEDvhpSu4ylfPkzQswHfoArLmoZRhIWeLiO8l/UtoXUZaXLX9fjWeA/CBMOdY6vMwzeSwgLTrydMAWu4vgdVJfZCS7jb8B/At8ijPB2kpVv71YjrDPwVuC1hFECDZ7fQXWZHYB8FgKXAd8ELun/706z8k1jLKEzcBCwLy6KMxh+B9VldgCqtYiw6NqPgAuAx8qmUy9WvumNIKxSdUB/NG6JyMz8DqrL7ACkNwf4PfALwi/9KSWTqTMr3+pNAHYH9gT2AHYGVimaUb34HVSX2QGIt4CwrPpVwP8CVwDPFM2oIax88xtJWB1se8LowPb9/71+yaQK8juoLrMDMDjzgdsIM4jeBPwFuJYwZ4sGycq3PkYBmxLmm96UMBHFBGCtJWIUz62dvQrteNbA76C6zA5AWGRnIWHofjZhqd0nganAI4Qh/HuB+4AHCJ0AJWDlq1ixFVjsd9AKtKzS18/9Sz1yERZJkjrIDoAkSR1kB0CSpA6yAyBJUgfZAZAkqYPsAEiS1EF2ACRJ6iA7AJIkdZAdAEmSOsgOgCRJHWQHQJKkDrIDIElSB9kBkCSpg+wASJLUQXYAJEnqoOGlE5AiuR56s5W+fqX3LxXjCIAkSR1kB0CSpA6yAyBJUgfZAZAkqYPsAEiS1EF2ACRJ6iA7AJIkdZAdAMWaF/n5MUmykJpnbOTn5ybJQp1lB0CxZkV+fqMkWUjNs3Hk52cmyUKdZQdAsaZFfn6/JFlIzRP73Y8te5IU5VJgUUTcAgzLnrVU1jDgVuLKziXZs1arOAKgWHdEfn4icFyKRKQGOR7YJnIbd6ZIRJJ69TbifsUsIjzMtE/uxKVC9iU8PBtbbg7OnbgkLWkC0EeaTsAJeDtA7TUMmESaxn8hsHbe9CXpH/2J+AptcUwGTiLcGvAVQTXdGGA74GTi7/kvGdfkPAi10/DSCagVvg/smmhb2wJfTLQtqa2+XzoBNd+Q0gmoFdYE7gdGl05E6oBZhDkEfA1QUXwLQCk8BXyrdBJSR3wdG38l4AiAUlkfuAtHAaQqzQS2Ah4rnYiazyeulcpsYD6wf+lEpBY7Bbi8dBJqB0cAlNJwwhsBO5dORGqh64DdgQWlE1E72AFQapsDNwDjSicitch0Qsf63tKJqD18CFCp3QO8A3+lSKksAI7Axl+J+QyAqnAX8DDwBhxlkmIsAt4NXFA6EbWPHQBV5S/AfYROgCNN0uAtJCyUdW7pRNROdgBUpZuA/wNeB4wsnIvUJDOAQ4DzSiei9nJ4VjlsDpyPbwdIA3EdcCje81fFHAFQDtOA7xBmDNwdWLVsOlItPQ2cDvwz8GThXNQBdgCUSx9wLfDd/v/eHhhRLBupPmYD5wBvA35BuPcvVc5bACplDeAwwutNu+F3Ud3SR5g06/uE22PO7a/srHRVB+sAryJ0BF5EeGZgLcJa6t4uUJPNJaze9yThnv7thIb/9zjMr8LsAKjuFkV+PvY7Xnr/scy/2fuXKuP72ZIkdZAdAEmSOsgOgCRJHWQHQJKkDrIDIElSB9kBkCSpg+wASJLUQcNLJzAA6xHmj98W2A54IbAuYfKY1Qkzas0AngEeBB4BJgM3ANcDD+VPWZLUAusBLwN2AbYENgFeAKwGjCVMpz8NmAP8jdAG3QrcDFxDaI80SLsCZxJOYh9hMo5eYzLweUInQs0Tc+1jJ3Gpw/5jmX+z96/8diUsynQr8df/NuALON35So0F/p1wwmJP+oouxknA+EzHpHilK+DS+49l/s3ev/IYC7yP8IOxqvbnDmx//sEawCcJwyhVnfilYxpwGl6IJihdAZfefyzzb/b+Va1xwKmEpcpztT/TgU/R8fZnKPBu4Anynfil40ngGByaqbPSFXDp/ccy/2bvX9UYAhwNPEa59ucJ4D108GH8LYA/Uu7ELx1X9+ek+ildAZfefyzzb/b+ld4mwFWUb3cWx1V0qP15BzCT8id96ZgBHFrhcas3pSvg0vuPZf7N3r/SOpQwBF+6vVk6ZgOHV3jcxQ0Fvkj5E72yOIsODsnUWOkKuPT+Y5l/s/evNIYSnuwv3b6sLL5EC9ufkcCPKX9yBxrnAatWciY0WKUr4NL7j2X+zd6/4o0ALqR8uzLQuJAWtT8jgEsof1IHG7/oz11lla6AS+8/lvk3e/+KMwL4KeXbk8HGJbSg/RlGs3peS8f5/cegckpXwKX3H8v8m71/9W4ocAHl25Fe48c0/HbAFyh/EmPjrORnRYNRugIuvf9Y5t/s/at3n6N8+xEbX0h+VjI5nPInL1X4dkA5pSvg0vuPZf7N3r9606b2p3FvB2xBeK2h9IlLFbOBrZKeIQ1U6Qq49P5jmX+z96/B24zwWnfpdiNVzKRB8wQMBa6k/ElLHf9Lw+/HNFTpCrj0/mOZf7P3r8EZQpjYrXR7kTquoiEz1v4L5U9WVXFcwvOkgSldAZfefyzzb/b+NTjvonw7UVUcm/A8Ael7FGOBu4F1Em8XwjDI5cBlhGWCpwCPEhZzWAXYGtgW2B84ABhVQQ5PApv356I8YivR2O946f3HMv9m718DtwbwV2CtCrZdh/bnCcKtgNq2P58mfa/nr8DxwOqDyGM08F7ggQryOW0QeShe6V9gpfcfy/ybvX8N3Cdof/vzyUHkkdVY0j548SzwMeImQ1gV+BAwN2FeM+j4Mo6Zla6AS+8/lvk3e/8amPGkneO/ru3PdGBMRE6VmUS6g7wf2C5hbjsRbk2kyu/EhLlpxUpXwKX3H8v8m71/Dcy/0Z32530Jc0tiCHAXaQ7uJmCDCnJcH7g1UY634b29XEpXwKX3H8v8m71/rdwQQp3clfbn9gryi7ILaQ7sfqo5+YtNIDy8kSLXXSvMU88pXQGX3n8s82/2/rVyu9O99meXFAmleq/9kATbmAP8E/Bwgm0tz+PAwf37inVggm1IkuKkqIub1v6kaHOTuYP4Hs3HMub7oQT53pox3y4r/Qus9P5jmX+z96+VSzG03rT255YUiaS4jz2B8D5kzLbuJrxDOS9BPgMxknAfZZNM+1M5XX8P3PzL7l/119T2Z31C29uzFLcA9iS+kJ1NvpMPYQjm8xn3J0mqp6a2Py+L3UCKDsCOkZ+fCXw3QR6D9UPgmQL7lSTVQ5Pbn5fGJpGiAxC7StHlwNMJ8hisGcAvC+xXklQPTW5/toxNIkUHYPPIz1+WIIdeXV1w35Kksprc/mwWm0CKDsB6kZ+/OUEOvbq24L4lSWU1uf2ZEJtAig7AYBZJWJYpCXLo1UMF9y1JKmtKwX3Htj9rxiZQhw7A1AQ5NHHfkqSymtz+xCxUBKTpAMS+Ajg8QQ69Wlhw36pebdfNVmPMKp2AKtXp9idFB2B25OdjRxBiuKxvuz1QOgE13oOlE1Clmtz+zI1NIEUHIPYViq0S5NCr6KcoVWsln/BVO/ymdAKqVJPbn2mxCaToAERNRQhMTJBDr3YouG9VayFwbukk1HjfpgZDtapMk9ufJ2ITSNEBuDvy8/snyKFX+xTct6r1NcIa4VKMycA3SiehyjS5/bknNoEUHYDYJA4ARifIY7BGA68tsF9V77fA+0snodY4iTBjnNqnye3PXbFJpOgA3Bj5+VHAOxLkMVhHUPYBEKW3EPgy8DpgfuFc1B7zCN+pr+LtgLZpcvtzfWwSdVkO+EHCvMbRTzUO0KrAHbgccBvMJkzmcRnhnn/qYf/Sy9HGMv+0tgWOAfYj1B8lfj0qrSa2P4sIywE/liKhWLcTEoqJD2XM96MJ8p2cMV+VE/s9Kc381Xa30b3256aM+a7U54g/oLnAThly3bN/X7H5fiZDriqv6Q2Q+avtvkD32p/PZch1wF5K/AEtIrxRsEGFeW5MGDJJkevLKsxT9dH0Bsj81Xa70732Z+cK8+zJnaQ5sFtJsMrRMmxMGLZPlaO6oekNkPmr7YbQrfbn9gryi3YiaQ5uEeGhrpQ9nD1J1/NaBJyQMDfVW9MbIPNXF7yf7rQ/JybMLZkxwHTSHeSzhAczRkbktCrhgYsU91wWxwxgXEROapamN0Dmry4YRzfan2mEtraWPkm6A10cU4D3MrhGdzRwHHBfBfmcOog81HxNb4DMX13xGdrf/nx8EHmsVOp3ZMcQHqSo4h7KM8AvgauBa4GHCOspLyRcnM2AHYG9CTMsVTHJzxPA5rhEaJfENiK+Rx+n6fkrn3GE9mftCrZt+zNAx5G+11OXeHfC86RmaPovUPNXl7S5/Tkm4XmqzFDg95Q/Wanjd/hrooua3gCZv7pkKOFXeun2InVcSYPan80IU7SWPmmpYhZhqkh1T9MbIPNX12xFqLNLtxupYgahTW2UQ4E+yp+82OgDDkl8btQcTW+AzF9ddATl245UcXjic5NNiimCS8fnk58VNUnTGyDzV1edRfn2IzbOSH5WMhoGXED5k9hr/DdplkxWczW9ATJ/ddUw4CLKtyO9xnm0oP1ZBfgZ5U/mYOPi/tzVbU1vgMxfXbYq8AvKtyeDjZ/RovZnVeB8yp/UgcYPgBGVnAk1TdMbIPNX140E/ofy7cpA44e0sP0ZSrifXvrkriw+R4Net6jAdsA5hIUr2vQmR6korev5dz1mE8ry2cDEQZ77NhkKfIny12NF0UdoIxs/7L8ihxFeayh9speO6cDBFR533a0K/AdhZqvS16JNUVrX8zeeiwXAV2nhr8tBOJx6/rCZBby1wuOulc2Aayh/0hfHlYQpFrtqVeAKyl+HNkZpXc/f+Me4nG53ArYArqL8dVgcvwM2rfSIa2gocDTwOOVO/OPAUXR7yB/g65QvBG2N0rqev7Hs+MpgLkILDQXeQ9n251FCG9jqIf+VGQ+cRlhYIdeJn0pYpnFs9YdXe9vhsH+VUVrX8zeWHQuAbQdxHdpqHGEV22nkO/cPAR/E9ud5xgAnER5YqerE3wKciCd+SWdTvjJqc5TW9fyN5cdZg7gObTcW+DfgNqo73zcB76Tbt18G5KWEpyH/j/jphG8CPgu8LOsRNMetlK+I2hyldT1/Y/lxyyCuQ5fsSpiBL7Zu7ANuBk4ntGm104R73+sCLye8wrIdsDGwTn+MIbxR0Ed4svNB4GHCKMKNwPXAI/lTbpSZhPOoapQuY7GNeNPz1/LNwtHQlVkX2APYHtgG2AjYEBgNjCJM1jMTeBZ4oD9uI/zw/APhGYPaKl24VZ4VbHVmEu4xltT0DoAd1GqVvr4qqNNPH0oVe6B0Ai3wYOkEpLayAyBV57LSCbTAb0onILWVwz/yFkA1FhLuG95WOI+m3wKYSHgYeFjhPNqq9PVVQY4ASNX4GuUb/zaYDHyjdBJSG9n7kyMA6f0WeB0wv3QiNH8EAMJ7078E9imdSAvV4fqqEEcApHQWAl+mPo1/W8wjnNOvEs6xpATs/ckRgDizgSmEB/7OpX7D/m0YAVjStsAxwH7AJoT3sdW7ul1fZeTFV9saCD2f17fdvL7qmbcApHYZQpg583TCVKaxbu3f1m7YWEhSq8TOJ656GAscS5jfvaq54+8CTgHWynRMWjnLr6SeWYE022hCozydfIvIzCYsljI+w/FpxSy/knpmBdJMQ4Hjganka/iXjieA4/DWQEmWX0k9swJpnq2BqyjX8C8d/wtsWekRa3ksv5J6ZgXSLIcRhuBLN/pLxyzgbRUet5bN8iupZ1YgzTAMOIfyDf3K4iyctz8ny6+knlmB1N8I4ALKN+4DjfOAVSo5E1qa5VdSz6xA6m0k8CvKN+qDjV8Aq1ZwPvR8ll9JPbMCqa+hNOuX/9JxHk42VjXLr6SeWYHU19mUb8Rj48zkZ0VLsvxK6pkVSD29lfKNd6o4PPG50XMsv5J6ZgVSP1sAMyjfcKeKWYS5C5Se5VdSz6xA6mUIcDXlG+3UcSXOGFgFy6+knlmB1Mu7Kd9YVxVHpTtN6mf5Vc/skSu2EvA7lM544B5gzQq2/TRwCXAN8CfgEcI6Agv697sJ8BJgb+D1wJgKcniS525vKA3Lr6QBW3q9+NhfEK4Xn84nSP+r+x7CqMJgGvTV+z9zdwX5fGwQeegfWX4lDdp44H3AHVQ3xHs7MAmXie3FGqRd0vdZ4IPETcazSv825iTM6ylgXEROXWX5lTRorhffDCeT7vw/ALwsYW4vJ9wySJXfiQlzazvLr6RBc7345hhC+PWV4pxPBtauIMcXArckyvGWCvJrG8uvpJ64Xnyz7EGa8/xXYP0K83wh8GiiXHetMM+ms/xK6onrxTfPF4g/v/OAXTLkujtpngk4PUOuTWT5lTRorhffXCme5j4lY76nJcj35oz5NoHlV1JPRgAXUr5yGGi4XvxzXkD8+byfvEvvjibNrYANMuZcZ5ZfST1xvfhmexPx5/K47FmHB9Ri835j9qzrx/IrqSeuF998nybuHD5D+EWe2+qE+8IxuZ+WO+masfxK6pnrxTffRcSdv4vyp/x3568gr4HEhflTrhXLr6SeHEb5wp8q3pr43DTJtcSduxLD/4u9ZwV5DST+kD/l2rD8SuqJ68W3x0PEnbs986f8dy9fQV4Difvzp1wLll9JPXG9+HaJfed7Qv6U/27CCvIaSMzMn3Jxll9JPXO9+HaZS9w5Wz1/yn+36gryGkg8nT/l4iy/qg17bM3ievHtMx8YHvH5kYRORAmrEdeIzyXk3xWWX0k9c7349ol9la7kZDobrSCvgUTXGgrLr6SeuF58O91L3PnaPX/Kf7fbCvIaaOPVFZZfST1LuV78vcBOCXPbnXSrxC0CJiXMre6a/BrgpBXkNZC4Nn/KxVh+JfXE9eLbK3YynZITAcXOX39+/pSLsPxK6pnrxbfXx4g7TzMoMxXweMKDZzG5fzR71mVYflVLzuPcDAcm2MY8woxdjyTY1vI8ALyFNE+lvynBNppgcuTnx1Lm9avDCW8BxOjKL0XLr6SeuV58e60H9BF3ru4m78psowiz+MXk3EfZSYxysvxK6onrxbffTcSfq49nzPcjCfL9S8Z8S7L8SuqZ68W335nEn6s5wPYZct2FNK+NfT5DrnVg+ZXUs08RVwhLrRc/GteLH6hdiK9sFxHu4Vb5q2td4of+F8fOFeZZJ5Zf1ZYPAdbftpGf/xVhwZncZgO/jNxG7LE3xXXAbQm2sxFwKdV0AjYEfk94UjzWZOCGBNtpAsuvassOQP1tGPn5y5Jk0ZsrIj8fe+xN8p1E29meMBf8Dom2B/BSwmpvL0q0vXMTbacJLL+SevYgccNwJdeLj50qtkvrxY8lTKOaYnh9EeE+/anEPTw2kvDA37yEeU2lzJB2KZZfST1zvfjuqGqxmH9lcIvFjAb+hfjGa1lx6iDyaAPLr2rL5YDrbw5xv+LGUOYeIoS850R8/hnKrnef2xrAncA6FWx7NnA5YUj5JmAKYXGaEf2xNTAR2B94DdUs0/t4/36mV7DturL8SurZfOJ64TnfH17aaivIayARU/k01dGk/9Vdlzgq3WlqDMuvpJ65Xny3DAWuoXxjnTqupJsjjpZf1ZZvAdTfE5Gf3yRFEj2KfQr4ySRZNEsf8A7aVXlOB44kNApdY/lVbdkBqL/YCiTH7HDLE7siWFcrkHuB95ZOIqH3EJ456CLLr2rLDkD9TYn8/P4pkuhR7CtMU1Ik0VA/oh3T5Z4OXFA6iYKmRH7e8it1mOvFd9dQ4HzK37/vNX5IN+/7L8nyq9pyBKD+XC++u/oI984vLp1ID35C+N518b7/kiy/knrmevFahWaNBPwIGF7JmWgey6+kKK4Xr2HAGcQ3JlVGH/DZ/lz1HMuvpJ65XrwWeyvx75ZXETOBgys87iaz/ErqmevFa0mbElZqK93oL47fAhtXesTNZvmVFOVW0hTMm6huvfjbE+Xow0MrNwQ4FniUcg3/I8C78En/gbD8SurZyaSruB8g/Xrx9yTM730Jc2u70cBpwDTyNfzTCPekXehl4Cy/knrmevFakdHACcAdVNfw30FYJtjrM3iWX0lRXC9eA7ETYQa+W4l7a6CP8B77Z4Edsx5BO1l+VSveu2sW14vXYK0N7EHoFGwBbE54P3s8zw3hP004548TGpS7gRsIqxJOzZxvm1l+JUU5hvS99rrEUelOk1RLll9JPXO9eKm5LL+SomxKGGYrXehTxXTKrnsu5WT5lRTlMMoX/FTx1sTnRqo7y6+kKJ+jfOGPjc8kPytSM1h+JfVsCPADylcCvcZ5eN9Q3WX5lRRlVeBnlK8MBhsXEV5PkrrM8ispyjDge5SvFAYa5xPWuJdk+ZUUaQhwCvVfL/4MXC9eWprlV1I014uXmsvyKynKJoQ12ktXGovjSsI0tJJWbhMsv5IiuF681FyWX0nRXC9eai7Lr6RorhcvNZflV1ISrhcvNZflV0l4b0euFy81l+VXkiRJkiRJkiRJkiRJkiRJkiRJkiRJkiRJkiRJkiRJkiRJkiRJkiRJkiRJkiRJkiQpof8PStPU2Ckg1+EAAAAASUVORK5CYII=" parent="1" vertex="1">
                    <mxGeometry x="161" y="220" width="100" height="100" as="geometry"/>
                </mxCell>
                <mxCell id="3" value="" style="shape=image;verticalLabelPosition=bottom;verticalAlign=top;imageAspect=0;image=data:image/png,iVBORw0KGgoAAAANSUhEUgAAAgAAAAIACAYAAAD0eNT6AAAABHNCSVQICAgIfAhkiAAAAAlwSFlzAAAOxAAADsQBlSsOGwAAABl0RVh0U29mdHdhcmUAd3d3Lmlua3NjYXBlLm9yZ5vuPBoAABAsSURBVHic7d1fzCX1XcfxD+yyq2VZ/tho0qJCtQICaoo2MbQaS7FCa+ON3qgxBrRJo73SKxNbb4wxseHPFknVeNEYm+iF2gZawGpsvWhaDYlUlEJBoH/AtBSW2hb26Xoxu4Htsuxznplz5jnn83ol544z832A3Xk/M7+ZSQAAAAAAAAAAAAAAAAAAAAAAAAAAAAAAAAAAAAAAAAAAAAAAAAAAAAAAAAAAAAAAAAAAAAAAAAAAAAAAAAAAAAAAAAAAAAAAAAAAAAAAAAAAAAAAAAAAAAAAAAAAAAAA2IkzZtjnniRXJXlDksuSXJLkwiTnJTmQ5KwZZgKAZXsuydeSfDXJY0n+O8n9ST6R5N+TbK1ymFUFwL4k1yX51STXJjm4ov0CwDp4OsndST6Q5M4kzy97h8sOgO9K8q4k70zyyiXvCwA2wf8muS3JLUm+sqydLCsAXpHk9zIc/A8saR8AsMkOJ7kpyR8l+b+pN76MAHh7hmr5/iVsGwDaPJLkt5N8eMqNThkA+5P8cYbf+gGAaX0gyTuSfH2KjU0VAK9K8qEkr5toewDAyT6d4Uz7F8duaIoAeE2Sjyb5wQm2BQC8vEeSvCXJA2M2MjYAXpvk40m+Z+R2AIDteyLD83Qe3OkGxgTAqzI8vODiEdsAAHbm4SRXZ4eXA3YaAN+R5F/jmj8AzOlTGc4EPLfoF/fscIc3Z1iEAADM59UZnq77kUW/uJMzAD+f5B928D0AYHpHk7wtyR2LfGnRAHhFkvviuj8A7Cb/k+TyDC8b2pZFLwG8J079A8Buc16SI0n+ebtfWOQMwAUZ7j08Z6GRAIBVOJzhMfxPTb3hP8hwnWHKz6NJbk3yc0kuTXL21EMDwC5xdoZj3XVJDiV5LNMfV9899dD7MryecKoBH09yY3Z+FwIArLu9SX4jyecz3fH1iSRnTTnkL0w43N/HZQQAOO6cDHfXTXWcfduUw/3tREPdkuTMKQcDgA1wZoZL4lMcaz841VB7MiwoGDvQHXHKHwBO5cwMZ8nHHm+fykTH29dPMMzjcdofAE7nYJIvZPxx96rT7Wg7p+PfsPD4J3t3htsTAIBTeybDM3fGeuME28ifZVyFPBqn/gFgu/ZmOHM+5th7++l2sp0zAJcuPvsJ/i7J1shtAECLIxnWAoxxyen+ge0EwIUjh7hz5PcBoM1CL/Z5Cd93un9gOwFwcOQQD478PgC0GXvsnGTh/Tcz7jrEgSmGAIAiBzLu2PuN0+1gOy8DOrqDwRfdBwBwoqUefz2VDwAKCQAAKCQAAKCQAACAQgIAAAoJAAAoJAAAoJAAAIBCAgAACgkAACgkAACgkAAAgEICAAAKCQAAKCQAAKCQAACAQgIAAAoJAAAoJAAAoJAAAIBCAgAACgkAACgkAACgkAAAgEICAAAKCQAAKCQAAKCQAACAQgIAAAoJAAAoJAAAoJAAAIBCAgAACgkAACgkAACgkAAAgEICAAAKCQAAKCQAAKCQAACAQgIAAAoJAAAoJAAAoJAAAIBCAgAACgkAACgkAACgkAAAgEICAAAKCQAAKCQAAKCQAACAQgIAAAoJAAAoJAAAoJAAAIBCAgAACgkAACgkAACgkAAAgEICAAAKCQAAKCQAAKCQAACAQgIAAAoJAAAoJAAAoJAAAIBCAgAACgkAACgkAACgkAAAgEICAAAKCQAAKCQAAKCQAACAQgIAAAoJAAAoJAAAoJAAAIBCAgAACgkAACgkAACgkAAAgEICAAAKCQAAKCQAAKCQAACAQgIAAAoJAAAoJAAAoJAAAIBCAgAACgkAACgkAACgkAAAgEICAAAKCQAAKCQAAKCQAACAQgIAAAoJAAAoJAAAoJAAAIBCAgAACgkAACgkAACgkAAAgEICAAAKCQAAKCQAAKCQAACAQgIAAAoJAAAoJAAAoJAAAIBCAgAACgkAACgkAACgkAAAgEICAAAKCQAAKCQAAKCQAACAQgIAAAoJAAAoJAAAoJAAAIBCAgAACgkAACgkAACgkAAAgEICAAAKCQAAKCQAAKCQAACAQgIAAAoJAAAoJAAAoJAAAIBCAgAACgkAACgkAACgkAAAgEICAAAKCQAAKCQAAKCQAACAQgIAAAoJAAAoJAAAoJAAAIBCAgAACgkAACgkAACgkAAAgEICAAAKCQAAKCQAAKCQAACAQgIAAAoJAAAoJAAAoJAAAIBCAgAACgkAACgkAACgkAAAgEICAAAKCQAAKCQAAKCQAACAQgIAAAoJAAAoJAAAoJAAAIBCAgAACgkAACgkAACgkAAAgEICAAAKCQAAKCQAAKCQAACAQgIAAAoJAAAoJAAAoJAAAIBCAgAACgkAACgkAACgkAAAgEICAAAKCQAAKCQAAKCQAACAQgIAAAoJAAAoJAAAoJAAAIBCAgAACgkAACgkAACgkAAAgEICAAAKCQAAKCQAAKCQAACAQgIAAAoJAAAoJAAAoJAAAIBCAgAACgkAACgkAACgkAAAgEICAAAKCQAAKCQAAKCQAACAQgIAAAoJAAAoJAAAoJAAAIBCAgAACgkAACgkAACgkAAAgEICAAAKCQAAKCQAAKCQAACAQgIAAAoJAAAoJAAAoJAAAIBCAgAACgkAACgkAACgkAAAgEICAAAKCQAAKCQAAKCQAACAQgIAAAoJAAAoJAAAoJAAAIBCAgAACgkAACgkAACgkAAAgEICAAAKCQAAKCQAAKCQAACAQgIAAAoJAAAoJAAAoNDeFezj6Ar2AQAswBkAACgkAACgkAAAgEICAAAKCQAAKCQAAKCQAACAQgIAAAoJAAAoJAAAoJAAAIBCAgAACgkAACgkAACgkAAAgEJ7V7CPM1awDwDYNEeXuXFnAACgkAAAgEICAAAKCQAAKCQAAKCQAACAQgIAAAoJANgsVya5Ocl9SZ7NcB/xmM+zx7Z1U5IrVvhzALvA2L9AgOXbn+S2JFsZ/2f2VJ8jSQ4l2beinwnazX78nX0A4GXtT/KxLO/A/+2ff4wIgFWY/fg7+wDAy/rTrO7gf/xz60p+Mug2+/F39gGAU7oyyz3tf6rPkSSXr+Dng2ZLPf5aBAjr7cbM8+d4T5IbZtgvMBEBAOvtzTPu+9oZ9w2MtJ1X9Y49je91wLA8h5McmHHfB2faNzRY6vHXGQBYb3Ous7HGB9aYAID19tiM+350xn0DIwkAWG93z7jvu2bcN7ACbgOE3euKDLfkzXEb4A+v4OeDZrMff785coBzphgCOKVDWX0A3LySnwx6Hcy4P6PfmGKIL48c4oemGAI4pX1J7snqDv53JzlrJT8Z9Los4/6cPnm6HWxnDcAzOxj8xX5g5PeBl/dckusznAnYWuJ+tpLccmxfzy9xP0DympHfPzzFEP+ScRVyaIohgG25PMl7k/xHhr8Axv62f/jYtv4krvnDKo19x8c/TTHE+0cO8ViSvVMMAgAF9iZ5POOOvbefbifbuQRw/+Kzn+DCJL8+chsA0OKGJK8euY2xx+4kyU9k/GnEz8fdAABwOucm+WLGH3evmmKYPUmemmCYO49tCwA42ZlJPpTxx9svZ8IH/f3NBAMdTXLrlEMBwIY4M9M90+Ovpxzs7RMNdTRD3XiDGAAMzk3y4Ux3nH3rlMOdleGhAlMN94Ukvxl3BwDQa2+Sd2Saa/7HP09kCcfW90w44PHP40luy/Bgkcsy33vNAWDZDmQ41r01w7Fv7K1+L/X5/e0Oc8YCg1+Q5JFYzQ8Au9EzSS7KsHD/tBZZkPeVeAEIAOxW7802D/7JYmcAkuQ7k3wmycULfg8AWJ6HMrwefNtvAVz0lryvJ3nXgt8BAJbnaJLfyoKvAN7Jg3keSPLKJK/fwXcBgGndlOR9i35p0UsAx+1P8okkP77D7wMA430yyU9leC34QnYaAEny3Rki4LUjtgEA7Mznklyd5Es7+fKYx/I+meH+/SdGbAMAWNyXkrwlOzz4J+Ofy/9gkp9M8tmR2wEAtufhJD+d4Ri8Y1O8mOfhDNcfPjXBtgCAU/tkhl+8Hxi7oalez/tskr/MsDjw6oxbWwAAnOz9SX4pwxP/RlvGgfr6DK809LAgABjvoQz3+X9kyo1OdQbgxT6boVK2krwuw1kBAGAxzyT5wyS/nOS/pt74sk/Vn5/hyYHvzHDbIADw8p7M8GCfW7PAs/0Xtapr9WdluF3hV5L8bIYwAAAGX0lyV5K/ynCq/8iydzjHYr09SX4syRuTXJrkkiTfm+S8DK8a3jfDTACwbM8lOZzkq0kezbCS//4kH09yb5JvzTcacNxDGV6wsdPP76x+5I31uxn332LUvdIA9Dg/Q4mPOej8zMqn3lxvyrj/Ft9KcsHKpwZg7VyT8Qec81Y+9eY6N+OD7JqVTw273BRPAoRNM/Ytlw9muMbHNJ7OcElmjKumGAQ2iQCAk409WPzbJFPwYmP/nQoA+DYCAE4mAHYfAQDAUlkAuDtZCAjAUlkAuDtNsRDwTSufGnYxlwDgRGNPFT8UCwCXYYqFgGMXd8JGEQBworEB8OlJpuClWAcAExIAcKKxvyVaALg8AgCApbAAcHezEBCApbAAcHezEBAm5BIAvMACwN3t6SSfG7kNlwHgGAEAL/AAoN1v7CJLAQDHCAB4gQDY/cb+O3YrIAAnsABwPVgICMCkLABcDxYCwkRcAoCBBYDrwUJAmIgAgIHr/+vDA4FgAgIABgJgfQgAACYxxQJA15VXx0JAACZhAeB6sRAQJuASAFgAuG4sBIQJnDH3ANS5MsmNGX7rvijJ2bNOA/P6WpJHktyT5M+T3DfrNABLsD/JbUm2Mu7UrY/Ppn6OJDmUZF9gBZwBYBX2J7kznpQH2/GxJNcleW7uQdhse+YegAqHkvzi3EPAmrg4w50pd849CJvNGQCW7cok98aCU1jEVpIfTfKZuQdhc/lLmWW7Mf4/g0XtSXLD3EOw2fzFzLK9ee4BYE1dO/cAbDaXAFi2w0kOzD0ErKHDSQ7OPQSbSwCwbEfnHgDWmL+jWRqXAACgkAAAgEICAAAKCQAAKCQAAKCQAACAQgIAAArtnXsAOA33QbPOPAeDXcsZAAAoJAAAoJAAAIBCAgAACgkAACgkAACgkAAAgEKeA8Bu5z5qgCVwBgAACgkAACgkAACgkAAAgEICAAAKCQAAKCQAAKCQAGDZDs89AKypZ+YegM0mAFi2x+YeANbUo3MPwGYTACzb3XMPAGvqrrkHYLOdMfcAbLwrktybZM/cg8Aa2UryI0n+c+5B2FzOALBs9yW5fe4hYM28Lw7+LJkzAKzCviR3JLlm7kFgDdyT5Pokz889CJvNaVlWYSvJB5Ocn+SqOPMEL2UryaEkvxYHf1bAGQBW7fIkNyS5NslFSQ7MOg3M69kkj2RY8PcXcdofAAAAAAAAAAAAAAAAAAAAAAAAAAAAAAAAAAAAAAAAAAAAAAAAAAAAAAAAAAAAAAAAAAAAAAAAAAAAAAAAAAAAAAAAAAAAAAAAAAAAAAAAAAAAAAAAAAAAAAAAAAAAAAB2vf8H6bQ2tw0DLbIAAAAASUVORK5CYII=" parent="1" vertex="1">
                    <mxGeometry x="170" y="540" width="82" height="72" as="geometry"/>
                </mxCell>
                <mxCell id="4" value="" style="shape=image;verticalLabelPosition=bottom;verticalAlign=top;imageAspect=0;image=data:image/png,iVBORw0KGgoAAAANSUhEUgAAAgAAAAIACAYAAAD0eNT6AAAABHNCSVQICAgIfAhkiAAAAAlwSFlzAAAOxAAADsQBlSsOGwAAABl0RVh0U29mdHdhcmUAd3d3Lmlua3NjYXBlLm9yZ5vuPBoAABAsSURBVHic7d1fzCX1XcfxD+yyq2VZ/tho0qJCtQICaoo2MbQaS7FCa+ON3qgxBrRJo73SKxNbb4wxseHPFknVeNEYm+iF2gZawGpsvWhaDYlUlEJBoH/AtBSW2hb26Xoxu4Htsuxznplz5jnn83ol544z832A3Xk/M7+ZSQAAAAAAAAAAAAAAAAAAAAAAAAAAAAAAAAAAAAAAAAAAAAAAAAAAAAAAAAAAAAAAAAAAAAAAAAAAAAAAAAAAAAAAAAAAAAAAAAAAAAAAAAAAAAAAAAAAAAAAAAAAAAAA2IkzZtjnniRXJXlDksuSXJLkwiTnJTmQ5KwZZgKAZXsuydeSfDXJY0n+O8n9ST6R5N+TbK1ymFUFwL4k1yX51STXJjm4ov0CwDp4OsndST6Q5M4kzy97h8sOgO9K8q4k70zyyiXvCwA2wf8muS3JLUm+sqydLCsAXpHk9zIc/A8saR8AsMkOJ7kpyR8l+b+pN76MAHh7hmr5/iVsGwDaPJLkt5N8eMqNThkA+5P8cYbf+gGAaX0gyTuSfH2KjU0VAK9K8qEkr5toewDAyT6d4Uz7F8duaIoAeE2Sjyb5wQm2BQC8vEeSvCXJA2M2MjYAXpvk40m+Z+R2AIDteyLD83Qe3OkGxgTAqzI8vODiEdsAAHbm4SRXZ4eXA3YaAN+R5F/jmj8AzOlTGc4EPLfoF/fscIc3Z1iEAADM59UZnq77kUW/uJMzAD+f5B928D0AYHpHk7wtyR2LfGnRAHhFkvviuj8A7Cb/k+TyDC8b2pZFLwG8J079A8Buc16SI0n+ebtfWOQMwAUZ7j08Z6GRAIBVOJzhMfxPTb3hP8hwnWHKz6NJbk3yc0kuTXL21EMDwC5xdoZj3XVJDiV5LNMfV9899dD7MryecKoBH09yY3Z+FwIArLu9SX4jyecz3fH1iSRnTTnkL0w43N/HZQQAOO6cDHfXTXWcfduUw/3tREPdkuTMKQcDgA1wZoZL4lMcaz841VB7MiwoGDvQHXHKHwBO5cwMZ8nHHm+fykTH29dPMMzjcdofAE7nYJIvZPxx96rT7Wg7p+PfsPD4J3t3htsTAIBTeybDM3fGeuME28ifZVyFPBqn/gFgu/ZmOHM+5th7++l2sp0zAJcuPvsJ/i7J1shtAECLIxnWAoxxyen+ge0EwIUjh7hz5PcBoM1CL/Z5Cd93un9gOwFwcOQQD478PgC0GXvsnGTh/Tcz7jrEgSmGAIAiBzLu2PuN0+1gOy8DOrqDwRfdBwBwoqUefz2VDwAKCQAAKCQAAKCQAACAQgIAAAoJAAAoJAAAoJAAAIBCAgAACgkAACgkAACgkAAAgEICAAAKCQAAKCQAAKCQAACAQgIAAAoJAAAoJAAAoJAAAIBCAgAACgkAACgkAACgkAAAgEICAAAKCQAAKCQAAKCQAACAQgIAAAoJAAAoJAAAoJAAAIBCAgAACgkAACgkAACgkAAAgEICAAAKCQAAKCQAAKCQAACAQgIAAAoJAAAoJAAAoJAAAIBCAgAACgkAACgkAACgkAAAgEICAAAKCQAAKCQAAKCQAACAQgIAAAoJAAAoJAAAoJAAAIBCAgAACgkAACgkAACgkAAAgEICAAAKCQAAKCQAAKCQAACAQgIAAAoJAAAoJAAAoJAAAIBCAgAACgkAACgkAACgkAAAgEICAAAKCQAAKCQAAKCQAACAQgIAAAoJAAAoJAAAoJAAAIBCAgAACgkAACgkAACgkAAAgEICAAAKCQAAKCQAAKCQAACAQgIAAAoJAAAoJAAAoJAAAIBCAgAACgkAACgkAACgkAAAgEICAAAKCQAAKCQAAKCQAACAQgIAAAoJAAAoJAAAoJAAAIBCAgAACgkAACgkAACgkAAAgEICAAAKCQAAKCQAAKCQAACAQgIAAAoJAAAoJAAAoJAAAIBCAgAACgkAACgkAACgkAAAgEICAAAKCQAAKCQAAKCQAACAQgIAAAoJAAAoJAAAoJAAAIBCAgAACgkAACgkAACgkAAAgEICAAAKCQAAKCQAAKCQAACAQgIAAAoJAAAoJAAAoJAAAIBCAgAACgkAACgkAACgkAAAgEICAAAKCQAAKCQAAKCQAACAQgIAAAoJAAAoJAAAoJAAAIBCAgAACgkAACgkAACgkAAAgEICAAAKCQAAKCQAAKCQAACAQgIAAAoJAAAoJAAAoJAAAIBCAgAACgkAACgkAACgkAAAgEICAAAKCQAAKCQAAKCQAACAQgIAAAoJAAAoJAAAoJAAAIBCAgAACgkAACgkAACgkAAAgEICAAAKCQAAKCQAAKCQAACAQgIAAAoJAAAoJAAAoJAAAIBCAgAACgkAACgkAACgkAAAgEICAAAKCQAAKCQAAKCQAACAQgIAAAoJAAAoJAAAoJAAAIBCAgAACgkAACgkAACgkAAAgEICAAAKCQAAKCQAAKCQAACAQgIAAAoJAAAoJAAAoJAAAIBCAgAACgkAACgkAACgkAAAgEICAAAKCQAAKCQAAKCQAACAQgIAAAoJAAAoJAAAoJAAAIBCAgAACgkAACgkAACgkAAAgEICAAAKCQAAKCQAAKCQAACAQgIAAAoJAAAoJAAAoJAAAIBCAgAACgkAACgkAACgkAAAgEICAAAKCQAAKCQAAKCQAACAQgIAAAoJAAAoJAAAoJAAAIBCAgAACgkAACgkAACgkAAAgEICAAAKCQAAKCQAAKCQAACAQgIAAAoJAAAoJAAAoNDeFezj6Ar2AQAswBkAACgkAACgkAAAgEICAAAKCQAAKCQAAKCQAACAQgIAAAoJAAAoJAAAoJAAAIBCAgAACgkAACgkAACgkAAAgEJ7V7CPM1awDwDYNEeXuXFnAACgkAAAgEICAAAKCQAAKCQAAKCQAACAQgIAAAoJANgsVya5Ocl9SZ7NcB/xmM+zx7Z1U5IrVvhzALvA2L9AgOXbn+S2JFsZ/2f2VJ8jSQ4l2beinwnazX78nX0A4GXtT/KxLO/A/+2ff4wIgFWY/fg7+wDAy/rTrO7gf/xz60p+Mug2+/F39gGAU7oyyz3tf6rPkSSXr+Dng2ZLPf5aBAjr7cbM8+d4T5IbZtgvMBEBAOvtzTPu+9oZ9w2MtJ1X9Y49je91wLA8h5McmHHfB2faNzRY6vHXGQBYb3Ous7HGB9aYAID19tiM+350xn0DIwkAWG93z7jvu2bcN7ACbgOE3euKDLfkzXEb4A+v4OeDZrMff785coBzphgCOKVDWX0A3LySnwx6Hcy4P6PfmGKIL48c4oemGAI4pX1J7snqDv53JzlrJT8Z9Los4/6cPnm6HWxnDcAzOxj8xX5g5PeBl/dckusznAnYWuJ+tpLccmxfzy9xP0DympHfPzzFEP+ScRVyaIohgG25PMl7k/xHhr8Axv62f/jYtv4krvnDKo19x8c/TTHE+0cO8ViSvVMMAgAF9iZ5POOOvbefbifbuQRw/+Kzn+DCJL8+chsA0OKGJK8euY2xx+4kyU9k/GnEz8fdAABwOucm+WLGH3evmmKYPUmemmCYO49tCwA42ZlJPpTxx9svZ8IH/f3NBAMdTXLrlEMBwIY4M9M90+Ovpxzs7RMNdTRD3XiDGAAMzk3y4Ux3nH3rlMOdleGhAlMN94Ukvxl3BwDQa2+Sd2Saa/7HP09kCcfW90w44PHP40luy/Bgkcsy33vNAWDZDmQ41r01w7Fv7K1+L/X5/e0Oc8YCg1+Q5JFYzQ8Au9EzSS7KsHD/tBZZkPeVeAEIAOxW7802D/7JYmcAkuQ7k3wmycULfg8AWJ6HMrwefNtvAVz0lryvJ3nXgt8BAJbnaJLfyoKvAN7Jg3keSPLKJK/fwXcBgGndlOR9i35p0UsAx+1P8okkP77D7wMA430yyU9leC34QnYaAEny3Rki4LUjtgEA7Mznklyd5Es7+fKYx/I+meH+/SdGbAMAWNyXkrwlOzz4J+Ofy/9gkp9M8tmR2wEAtufhJD+d4Ri8Y1O8mOfhDNcfPjXBtgCAU/tkhl+8Hxi7oalez/tskr/MsDjw6oxbWwAAnOz9SX4pwxP/RlvGgfr6DK809LAgABjvoQz3+X9kyo1OdQbgxT6boVK2krwuw1kBAGAxzyT5wyS/nOS/pt74sk/Vn5/hyYHvzHDbIADw8p7M8GCfW7PAs/0Xtapr9WdluF3hV5L8bIYwAAAGX0lyV5K/ynCq/8iydzjHYr09SX4syRuTXJrkkiTfm+S8DK8a3jfDTACwbM8lOZzkq0kezbCS//4kH09yb5JvzTcacNxDGV6wsdPP76x+5I31uxn332LUvdIA9Dg/Q4mPOej8zMqn3lxvyrj/Ft9KcsHKpwZg7VyT8Qec81Y+9eY6N+OD7JqVTw273BRPAoRNM/Ytlw9muMbHNJ7OcElmjKumGAQ2iQCAk409WPzbJFPwYmP/nQoA+DYCAE4mAHYfAQDAUlkAuDtZCAjAUlkAuDtNsRDwTSufGnYxlwDgRGNPFT8UCwCXYYqFgGMXd8JGEQBworEB8OlJpuClWAcAExIAcKKxvyVaALg8AgCApbAAcHezEBCApbAAcHezEBAm5BIAvMACwN3t6SSfG7kNlwHgGAEAL/AAoN1v7CJLAQDHCAB4gQDY/cb+O3YrIAAnsABwPVgICMCkLABcDxYCwkRcAoCBBYDrwUJAmIgAgIHr/+vDA4FgAgIABgJgfQgAACYxxQJA15VXx0JAACZhAeB6sRAQJuASAFgAuG4sBIQJnDH3ANS5MsmNGX7rvijJ2bNOA/P6WpJHktyT5M+T3DfrNABLsD/JbUm2Mu7UrY/Ppn6OJDmUZF9gBZwBYBX2J7kznpQH2/GxJNcleW7uQdhse+YegAqHkvzi3EPAmrg4w50pd849CJvNGQCW7cok98aCU1jEVpIfTfKZuQdhc/lLmWW7Mf4/g0XtSXLD3EOw2fzFzLK9ee4BYE1dO/cAbDaXAFi2w0kOzD0ErKHDSQ7OPQSbSwCwbEfnHgDWmL+jWRqXAACgkAAAgEICAAAKCQAAKCQAAKCQAACAQgIAAArtnXsAOA33QbPOPAeDXcsZAAAoJAAAoJAAAIBCAgAACgkAACgkAACgkAAAgEKeA8Bu5z5qgCVwBgAACgkAACgkAACgkAAAgEICAAAKCQAAKCQAAKCQAGDZDs89AKypZ+YegM0mAFi2x+YeANbUo3MPwGYTACzb3XMPAGvqrrkHYLOdMfcAbLwrktybZM/cg8Aa2UryI0n+c+5B2FzOALBs9yW5fe4hYM28Lw7+LJkzAKzCviR3JLlm7kFgDdyT5Pokz889CJvNaVlWYSvJB5Ocn+SqOPMEL2UryaEkvxYHf1bAGQBW7fIkNyS5NslFSQ7MOg3M69kkj2RY8PcXcdofAAAAAAAAAAAAAAAAAAAAAAAAAAAAAAAAAAAAAAAAAAAAAAAAAAAAAAAAAAAAAAAAAAAAAAAAAAAAAAAAAAAAAAAAAAAAAAAAAAAAAAAAAAAAAAAAAAAAAAAAAAAAAAB2vf8H6bQ2tw0DLbIAAAAASUVORK5CYII=" parent="1" vertex="1">
                    <mxGeometry x="300" y="540" width="82" height="72" as="geometry"/>
                </mxCell>
                <mxCell id="5" value="" style="shape=image;verticalLabelPosition=bottom;verticalAlign=top;imageAspect=0;image=data:image/png,iVBORw0KGgoAAAANSUhEUgAAAgAAAAIACAYAAAD0eNT6AAAABHNCSVQICAgIfAhkiAAAAAlwSFlzAAAOxAAADsQBlSsOGwAAABl0RVh0U29mdHdhcmUAd3d3Lmlua3NjYXBlLm9yZ5vuPBoAABAsSURBVHic7d1fzCX1XcfxD+yyq2VZ/tho0qJCtQICaoo2MbQaS7FCa+ON3qgxBrRJo73SKxNbb4wxseHPFknVeNEYm+iF2gZawGpsvWhaDYlUlEJBoH/AtBSW2hb26Xoxu4Htsuxznplz5jnn83ol544z832A3Xk/M7+ZSQAAAAAAAAAAAAAAAAAAAAAAAAAAAAAAAAAAAAAAAAAAAAAAAAAAAAAAAAAAAAAAAAAAAAAAAAAAAAAAAAAAAAAAAAAAAAAAAAAAAAAAAAAAAAAAAAAAAAAAAAAAAAAA2IkzZtjnniRXJXlDksuSXJLkwiTnJTmQ5KwZZgKAZXsuydeSfDXJY0n+O8n9ST6R5N+TbK1ymFUFwL4k1yX51STXJjm4ov0CwDp4OsndST6Q5M4kzy97h8sOgO9K8q4k70zyyiXvCwA2wf8muS3JLUm+sqydLCsAXpHk9zIc/A8saR8AsMkOJ7kpyR8l+b+pN76MAHh7hmr5/iVsGwDaPJLkt5N8eMqNThkA+5P8cYbf+gGAaX0gyTuSfH2KjU0VAK9K8qEkr5toewDAyT6d4Uz7F8duaIoAeE2Sjyb5wQm2BQC8vEeSvCXJA2M2MjYAXpvk40m+Z+R2AIDteyLD83Qe3OkGxgTAqzI8vODiEdsAAHbm4SRXZ4eXA3YaAN+R5F/jmj8AzOlTGc4EPLfoF/fscIc3Z1iEAADM59UZnq77kUW/uJMzAD+f5B928D0AYHpHk7wtyR2LfGnRAHhFkvviuj8A7Cb/k+TyDC8b2pZFLwG8J079A8Buc16SI0n+ebtfWOQMwAUZ7j08Z6GRAIBVOJzhMfxPTb3hP8hwnWHKz6NJbk3yc0kuTXL21EMDwC5xdoZj3XVJDiV5LNMfV9899dD7MryecKoBH09yY3Z+FwIArLu9SX4jyecz3fH1iSRnTTnkL0w43N/HZQQAOO6cDHfXTXWcfduUw/3tREPdkuTMKQcDgA1wZoZL4lMcaz841VB7MiwoGDvQHXHKHwBO5cwMZ8nHHm+fykTH29dPMMzjcdofAE7nYJIvZPxx96rT7Wg7p+PfsPD4J3t3htsTAIBTeybDM3fGeuME28ifZVyFPBqn/gFgu/ZmOHM+5th7++l2sp0zAJcuPvsJ/i7J1shtAECLIxnWAoxxyen+ge0EwIUjh7hz5PcBoM1CL/Z5Cd93un9gOwFwcOQQD478PgC0GXvsnGTh/Tcz7jrEgSmGAIAiBzLu2PuN0+1gOy8DOrqDwRfdBwBwoqUefz2VDwAKCQAAKCQAAKCQAACAQgIAAAoJAAAoJAAAoJAAAIBCAgAACgkAACgkAACgkAAAgEICAAAKCQAAKCQAAKCQAACAQgIAAAoJAAAoJAAAoJAAAIBCAgAACgkAACgkAACgkAAAgEICAAAKCQAAKCQAAKCQAACAQgIAAAoJAAAoJAAAoJAAAIBCAgAACgkAACgkAACgkAAAgEICAAAKCQAAKCQAAKCQAACAQgIAAAoJAAAoJAAAoJAAAIBCAgAACgkAACgkAACgkAAAgEICAAAKCQAAKCQAAKCQAACAQgIAAAoJAAAoJAAAoJAAAIBCAgAACgkAACgkAACgkAAAgEICAAAKCQAAKCQAAKCQAACAQgIAAAoJAAAoJAAAoJAAAIBCAgAACgkAACgkAACgkAAAgEICAAAKCQAAKCQAAKCQAACAQgIAAAoJAAAoJAAAoJAAAIBCAgAACgkAACgkAACgkAAAgEICAAAKCQAAKCQAAKCQAACAQgIAAAoJAAAoJAAAoJAAAIBCAgAACgkAACgkAACgkAAAgEICAAAKCQAAKCQAAKCQAACAQgIAAAoJAAAoJAAAoJAAAIBCAgAACgkAACgkAACgkAAAgEICAAAKCQAAKCQAAKCQAACAQgIAAAoJAAAoJAAAoJAAAIBCAgAACgkAACgkAACgkAAAgEICAAAKCQAAKCQAAKCQAACAQgIAAAoJAAAoJAAAoJAAAIBCAgAACgkAACgkAACgkAAAgEICAAAKCQAAKCQAAKCQAACAQgIAAAoJAAAoJAAAoJAAAIBCAgAACgkAACgkAACgkAAAgEICAAAKCQAAKCQAAKCQAACAQgIAAAoJAAAoJAAAoJAAAIBCAgAACgkAACgkAACgkAAAgEICAAAKCQAAKCQAAKCQAACAQgIAAAoJAAAoJAAAoJAAAIBCAgAACgkAACgkAACgkAAAgEICAAAKCQAAKCQAAKCQAACAQgIAAAoJAAAoJAAAoJAAAIBCAgAACgkAACgkAACgkAAAgEICAAAKCQAAKCQAAKCQAACAQgIAAAoJAAAoJAAAoJAAAIBCAgAACgkAACgkAACgkAAAgEICAAAKCQAAKCQAAKCQAACAQgIAAAoJAAAoJAAAoJAAAIBCAgAACgkAACgkAACgkAAAgEICAAAKCQAAKCQAAKCQAACAQgIAAAoJAAAoJAAAoJAAAIBCAgAACgkAACgkAACgkAAAgEICAAAKCQAAKCQAAKCQAACAQgIAAAoJAAAoJAAAoJAAAIBCAgAACgkAACgkAACgkAAAgEICAAAKCQAAKCQAAKCQAACAQgIAAAoJAAAoJAAAoJAAAIBCAgAACgkAACgkAACgkAAAgEICAAAKCQAAKCQAAKCQAACAQgIAAAoJAAAoJAAAoJAAAIBCAgAACgkAACgkAACgkAAAgEICAAAKCQAAKCQAAKCQAACAQgIAAAoJAAAoJAAAoNDeFezj6Ar2AQAswBkAACgkAACgkAAAgEICAAAKCQAAKCQAAKCQAACAQgIAAAoJAAAoJAAAoJAAAIBCAgAACgkAACgkAACgkAAAgEJ7V7CPM1awDwDYNEeXuXFnAACgkAAAgEICAAAKCQAAKCQAAKCQAACAQgIAAAoJANgsVya5Ocl9SZ7NcB/xmM+zx7Z1U5IrVvhzALvA2L9AgOXbn+S2JFsZ/2f2VJ8jSQ4l2beinwnazX78nX0A4GXtT/KxLO/A/+2ff4wIgFWY/fg7+wDAy/rTrO7gf/xz60p+Mug2+/F39gGAU7oyyz3tf6rPkSSXr+Dng2ZLPf5aBAjr7cbM8+d4T5IbZtgvMBEBAOvtzTPu+9oZ9w2MtJ1X9Y49je91wLA8h5McmHHfB2faNzRY6vHXGQBYb3Ous7HGB9aYAID19tiM+350xn0DIwkAWG93z7jvu2bcN7ACbgOE3euKDLfkzXEb4A+v4OeDZrMff785coBzphgCOKVDWX0A3LySnwx6Hcy4P6PfmGKIL48c4oemGAI4pX1J7snqDv53JzlrJT8Z9Los4/6cPnm6HWxnDcAzOxj8xX5g5PeBl/dckusznAnYWuJ+tpLccmxfzy9xP0DympHfPzzFEP+ScRVyaIohgG25PMl7k/xHhr8Axv62f/jYtv4krvnDKo19x8c/TTHE+0cO8ViSvVMMAgAF9iZ5POOOvbefbifbuQRw/+Kzn+DCJL8+chsA0OKGJK8euY2xx+4kyU9k/GnEz8fdAABwOucm+WLGH3evmmKYPUmemmCYO49tCwA42ZlJPpTxx9svZ8IH/f3NBAMdTXLrlEMBwIY4M9M90+Ovpxzs7RMNdTRD3XiDGAAMzk3y4Ux3nH3rlMOdleGhAlMN94Ukvxl3BwDQa2+Sd2Saa/7HP09kCcfW90w44PHP40luy/Bgkcsy33vNAWDZDmQ41r01w7Fv7K1+L/X5/e0Oc8YCg1+Q5JFYzQ8Au9EzSS7KsHD/tBZZkPeVeAEIAOxW7802D/7JYmcAkuQ7k3wmycULfg8AWJ6HMrwefNtvAVz0lryvJ3nXgt8BAJbnaJLfyoKvAN7Jg3keSPLKJK/fwXcBgGndlOR9i35p0UsAx+1P8okkP77D7wMA430yyU9leC34QnYaAEny3Rki4LUjtgEA7Mznklyd5Es7+fKYx/I+meH+/SdGbAMAWNyXkrwlOzz4J+Ofy/9gkp9M8tmR2wEAtufhJD+d4Ri8Y1O8mOfhDNcfPjXBtgCAU/tkhl+8Hxi7oalez/tskr/MsDjw6oxbWwAAnOz9SX4pwxP/RlvGgfr6DK809LAgABjvoQz3+X9kyo1OdQbgxT6boVK2krwuw1kBAGAxzyT5wyS/nOS/pt74sk/Vn5/hyYHvzHDbIADw8p7M8GCfW7PAs/0Xtapr9WdluF3hV5L8bIYwAAAGX0lyV5K/ynCq/8iydzjHYr09SX4syRuTXJrkkiTfm+S8DK8a3jfDTACwbM8lOZzkq0kezbCS//4kH09yb5JvzTcacNxDGV6wsdPP76x+5I31uxn332LUvdIA9Dg/Q4mPOej8zMqn3lxvyrj/Ft9KcsHKpwZg7VyT8Qec81Y+9eY6N+OD7JqVTw273BRPAoRNM/Ytlw9muMbHNJ7OcElmjKumGAQ2iQCAk409WPzbJFPwYmP/nQoA+DYCAE4mAHYfAQDAUlkAuDtZCAjAUlkAuDtNsRDwTSufGnYxlwDgRGNPFT8UCwCXYYqFgGMXd8JGEQBworEB8OlJpuClWAcAExIAcKKxvyVaALg8AgCApbAAcHezEBCApbAAcHezEBAm5BIAvMACwN3t6SSfG7kNlwHgGAEAL/AAoN1v7CJLAQDHCAB4gQDY/cb+O3YrIAAnsABwPVgICMCkLABcDxYCwkRcAoCBBYDrwUJAmIgAgIHr/+vDA4FgAgIABgJgfQgAACYxxQJA15VXx0JAACZhAeB6sRAQJuASAFgAuG4sBIQJnDH3ANS5MsmNGX7rvijJ2bNOA/P6WpJHktyT5M+T3DfrNABLsD/JbUm2Mu7UrY/Ppn6OJDmUZF9gBZwBYBX2J7kznpQH2/GxJNcleW7uQdhse+YegAqHkvzi3EPAmrg4w50pd849CJvNGQCW7cok98aCU1jEVpIfTfKZuQdhc/lLmWW7Mf4/g0XtSXLD3EOw2fzFzLK9ee4BYE1dO/cAbDaXAFi2w0kOzD0ErKHDSQ7OPQSbSwCwbEfnHgDWmL+jWRqXAACgkAAAgEICAAAKCQAAKCQAAKCQAACAQgIAAArtnXsAOA33QbPOPAeDXcsZAAAoJAAAoJAAAIBCAgAACgkAACgkAACgkAAAgEKeA8Bu5z5qgCVwBgAACgkAACgkAACgkAAAgEICAAAKCQAAKCQAAKCQAGDZDs89AKypZ+YegM0mAFi2x+YeANbUo3MPwGYTACzb3XMPAGvqrrkHYLOdMfcAbLwrktybZM/cg8Aa2UryI0n+c+5B2FzOALBs9yW5fe4hYM28Lw7+LJkzAKzCviR3JLlm7kFgDdyT5Pokz889CJvNaVlWYSvJB5Ocn+SqOPMEL2UryaEkvxYHf1bAGQBW7fIkNyS5NslFSQ7MOg3M69kkj2RY8PcXcdofAAAAAAAAAAAAAAAAAAAAAAAAAAAAAAAAAAAAAAAAAAAAAAAAAAAAAAAAAAAAAAAAAAAAAAAAAAAAAAAAAAAAAAAAAAAAAAAAAAAAAAAAAAAAAAAAAAAAAAAAAAAAAAB2vf8H6bQ2tw0DLbIAAAAASUVORK5CYII=" parent="1" vertex="1">
                    <mxGeometry x="430" y="540" width="82" height="72" as="geometry"/>
                </mxCell>
                <mxCell id="6" value="" style="shape=image;verticalLabelPosition=bottom;verticalAlign=top;imageAspect=0;image=data:image/png,iVBORw0KGgoAAAANSUhEUgAAAgAAAAIACAYAAAD0eNT6AAAABHNCSVQICAgIfAhkiAAAAAlwSFlzAAAOxAAADsQBlSsOGwAAABl0RVh0U29mdHdhcmUAd3d3Lmlua3NjYXBlLm9yZ5vuPBoAABAsSURBVHic7d1fzCX1XcfxD+yyq2VZ/tho0qJCtQICaoo2MbQaS7FCa+ON3qgxBrRJo73SKxNbb4wxseHPFknVeNEYm+iF2gZawGpsvWhaDYlUlEJBoH/AtBSW2hb26Xoxu4Htsuxznplz5jnn83ol544z832A3Xk/M7+ZSQAAAAAAAAAAAAAAAAAAAAAAAAAAAAAAAAAAAAAAAAAAAAAAAAAAAAAAAAAAAAAAAAAAAAAAAAAAAAAAAAAAAAAAAAAAAAAAAAAAAAAAAAAAAAAAAAAAAAAAAAAAAAAA2IkzZtjnniRXJXlDksuSXJLkwiTnJTmQ5KwZZgKAZXsuydeSfDXJY0n+O8n9ST6R5N+TbK1ymFUFwL4k1yX51STXJjm4ov0CwDp4OsndST6Q5M4kzy97h8sOgO9K8q4k70zyyiXvCwA2wf8muS3JLUm+sqydLCsAXpHk9zIc/A8saR8AsMkOJ7kpyR8l+b+pN76MAHh7hmr5/iVsGwDaPJLkt5N8eMqNThkA+5P8cYbf+gGAaX0gyTuSfH2KjU0VAK9K8qEkr5toewDAyT6d4Uz7F8duaIoAeE2Sjyb5wQm2BQC8vEeSvCXJA2M2MjYAXpvk40m+Z+R2AIDteyLD83Qe3OkGxgTAqzI8vODiEdsAAHbm4SRXZ4eXA3YaAN+R5F/jmj8AzOlTGc4EPLfoF/fscIc3Z1iEAADM59UZnq77kUW/uJMzAD+f5B928D0AYHpHk7wtyR2LfGnRAHhFkvviuj8A7Cb/k+TyDC8b2pZFLwG8J079A8Buc16SI0n+ebtfWOQMwAUZ7j08Z6GRAIBVOJzhMfxPTb3hP8hwnWHKz6NJbk3yc0kuTXL21EMDwC5xdoZj3XVJDiV5LNMfV9899dD7MryecKoBH09yY3Z+FwIArLu9SX4jyecz3fH1iSRnTTnkL0w43N/HZQQAOO6cDHfXTXWcfduUw/3tREPdkuTMKQcDgA1wZoZL4lMcaz841VB7MiwoGDvQHXHKHwBO5cwMZ8nHHm+fykTH29dPMMzjcdofAE7nYJIvZPxx96rT7Wg7p+PfsPD4J3t3htsTAIBTeybDM3fGeuME28ifZVyFPBqn/gFgu/ZmOHM+5th7++l2sp0zAJcuPvsJ/i7J1shtAECLIxnWAoxxyen+ge0EwIUjh7hz5PcBoM1CL/Z5Cd93un9gOwFwcOQQD478PgC0GXvsnGTh/Tcz7jrEgSmGAIAiBzLu2PuN0+1gOy8DOrqDwRfdBwBwoqUefz2VDwAKCQAAKCQAAKCQAACAQgIAAAoJAAAoJAAAoJAAAIBCAgAACgkAACgkAACgkAAAgEICAAAKCQAAKCQAAKCQAACAQgIAAAoJAAAoJAAAoJAAAIBCAgAACgkAACgkAACgkAAAgEICAAAKCQAAKCQAAKCQAACAQgIAAAoJAAAoJAAAoJAAAIBCAgAACgkAACgkAACgkAAAgEICAAAKCQAAKCQAAKCQAACAQgIAAAoJAAAoJAAAoJAAAIBCAgAACgkAACgkAACgkAAAgEICAAAKCQAAKCQAAKCQAACAQgIAAAoJAAAoJAAAoJAAAIBCAgAACgkAACgkAACgkAAAgEICAAAKCQAAKCQAAKCQAACAQgIAAAoJAAAoJAAAoJAAAIBCAgAACgkAACgkAACgkAAAgEICAAAKCQAAKCQAAKCQAACAQgIAAAoJAAAoJAAAoJAAAIBCAgAACgkAACgkAACgkAAAgEICAAAKCQAAKCQAAKCQAACAQgIAAAoJAAAoJAAAoJAAAIBCAgAACgkAACgkAACgkAAAgEICAAAKCQAAKCQAAKCQAACAQgIAAAoJAAAoJAAAoJAAAIBCAgAACgkAACgkAACgkAAAgEICAAAKCQAAKCQAAKCQAACAQgIAAAoJAAAoJAAAoJAAAIBCAgAACgkAACgkAACgkAAAgEICAAAKCQAAKCQAAKCQAACAQgIAAAoJAAAoJAAAoJAAAIBCAgAACgkAACgkAACgkAAAgEICAAAKCQAAKCQAAKCQAACAQgIAAAoJAAAoJAAAoJAAAIBCAgAACgkAACgkAACgkAAAgEICAAAKCQAAKCQAAKCQAACAQgIAAAoJAAAoJAAAoJAAAIBCAgAACgkAACgkAACgkAAAgEICAAAKCQAAKCQAAKCQAACAQgIAAAoJAAAoJAAAoJAAAIBCAgAACgkAACgkAACgkAAAgEICAAAKCQAAKCQAAKCQAACAQgIAAAoJAAAoJAAAoJAAAIBCAgAACgkAACgkAACgkAAAgEICAAAKCQAAKCQAAKCQAACAQgIAAAoJAAAoJAAAoJAAAIBCAgAACgkAACgkAACgkAAAgEICAAAKCQAAKCQAAKCQAACAQgIAAAoJAAAoJAAAoJAAAIBCAgAACgkAACgkAACgkAAAgEICAAAKCQAAKCQAAKCQAACAQgIAAAoJAAAoJAAAoJAAAIBCAgAACgkAACgkAACgkAAAgEICAAAKCQAAKCQAAKCQAACAQgIAAAoJAAAoJAAAoJAAAIBCAgAACgkAACgkAACgkAAAgEICAAAKCQAAKCQAAKCQAACAQgIAAAoJAAAoJAAAoJAAAIBCAgAACgkAACgkAACgkAAAgEICAAAKCQAAKCQAAKCQAACAQgIAAAoJAAAoJAAAoJAAAIBCAgAACgkAACgkAACgkAAAgEICAAAKCQAAKCQAAKCQAACAQgIAAAoJAAAoJAAAoNDeFezj6Ar2AQAswBkAACgkAACgkAAAgEICAAAKCQAAKCQAAKCQAACAQgIAAAoJAAAoJAAAoJAAAIBCAgAACgkAACgkAACgkAAAgEJ7V7CPM1awDwDYNEeXuXFnAACgkAAAgEICAAAKCQAAKCQAAKCQAACAQgIAAAoJANgsVya5Ocl9SZ7NcB/xmM+zx7Z1U5IrVvhzALvA2L9AgOXbn+S2JFsZ/2f2VJ8jSQ4l2beinwnazX78nX0A4GXtT/KxLO/A/+2ff4wIgFWY/fg7+wDAy/rTrO7gf/xz60p+Mug2+/F39gGAU7oyyz3tf6rPkSSXr+Dng2ZLPf5aBAjr7cbM8+d4T5IbZtgvMBEBAOvtzTPu+9oZ9w2MtJ1X9Y49je91wLA8h5McmHHfB2faNzRY6vHXGQBYb3Ous7HGB9aYAID19tiM+350xn0DIwkAWG93z7jvu2bcN7ACbgOE3euKDLfkzXEb4A+v4OeDZrMff785coBzphgCOKVDWX0A3LySnwx6Hcy4P6PfmGKIL48c4oemGAI4pX1J7snqDv53JzlrJT8Z9Los4/6cPnm6HWxnDcAzOxj8xX5g5PeBl/dckusznAnYWuJ+tpLccmxfzy9xP0DympHfPzzFEP+ScRVyaIohgG25PMl7k/xHhr8Axv62f/jYtv4krvnDKo19x8c/TTHE+0cO8ViSvVMMAgAF9iZ5POOOvbefbifbuQRw/+Kzn+DCJL8+chsA0OKGJK8euY2xx+4kyU9k/GnEz8fdAABwOucm+WLGH3evmmKYPUmemmCYO49tCwA42ZlJPpTxx9svZ8IH/f3NBAMdTXLrlEMBwIY4M9M90+Ovpxzs7RMNdTRD3XiDGAAMzk3y4Ux3nH3rlMOdleGhAlMN94Ukvxl3BwDQa2+Sd2Saa/7HP09kCcfW90w44PHP40luy/Bgkcsy33vNAWDZDmQ41r01w7Fv7K1+L/X5/e0Oc8YCg1+Q5JFYzQ8Au9EzSS7KsHD/tBZZkPeVeAEIAOxW7802D/7JYmcAkuQ7k3wmycULfg8AWJ6HMrwefNtvAVz0lryvJ3nXgt8BAJbnaJLfyoKvAN7Jg3keSPLKJK/fwXcBgGndlOR9i35p0UsAx+1P8okkP77D7wMA430yyU9leC34QnYaAEny3Rki4LUjtgEA7Mznklyd5Es7+fKYx/I+meH+/SdGbAMAWNyXkrwlOzz4J+Ofy/9gkp9M8tmR2wEAtufhJD+d4Ri8Y1O8mOfhDNcfPjXBtgCAU/tkhl+8Hxi7oalez/tskr/MsDjw6oxbWwAAnOz9SX4pwxP/RlvGgfr6DK809LAgABjvoQz3+X9kyo1OdQbgxT6boVK2krwuw1kBAGAxzyT5wyS/nOS/pt74sk/Vn5/hyYHvzHDbIADw8p7M8GCfW7PAs/0Xtapr9WdluF3hV5L8bIYwAAAGX0lyV5K/ynCq/8iydzjHYr09SX4syRuTXJrkkiTfm+S8DK8a3jfDTACwbM8lOZzkq0kezbCS//4kH09yb5JvzTcacNxDGV6wsdPP76x+5I31uxn332LUvdIA9Dg/Q4mPOej8zMqn3lxvyrj/Ft9KcsHKpwZg7VyT8Qec81Y+9eY6N+OD7JqVTw273BRPAoRNM/Ytlw9muMbHNJ7OcElmjKumGAQ2iQCAk409WPzbJFPwYmP/nQoA+DYCAE4mAHYfAQDAUlkAuDtZCAjAUlkAuDtNsRDwTSufGnYxlwDgRGNPFT8UCwCXYYqFgGMXd8JGEQBworEB8OlJpuClWAcAExIAcKKxvyVaALg8AgCApbAAcHezEBCApbAAcHezEBAm5BIAvMACwN3t6SSfG7kNlwHgGAEAL/AAoN1v7CJLAQDHCAB4gQDY/cb+O3YrIAAnsABwPVgICMCkLABcDxYCwkRcAoCBBYDrwUJAmIgAgIHr/+vDA4FgAgIABgJgfQgAACYxxQJA15VXx0JAACZhAeB6sRAQJuASAFgAuG4sBIQJnDH3ANS5MsmNGX7rvijJ2bNOA/P6WpJHktyT5M+T3DfrNABLsD/JbUm2Mu7UrY/Ppn6OJDmUZF9gBZwBYBX2J7kznpQH2/GxJNcleW7uQdhse+YegAqHkvzi3EPAmrg4w50pd849CJvNGQCW7cok98aCU1jEVpIfTfKZuQdhc/lLmWW7Mf4/g0XtSXLD3EOw2fzFzLK9ee4BYE1dO/cAbDaXAFi2w0kOzD0ErKHDSQ7OPQSbSwCwbEfnHgDWmL+jWRqXAACgkAAAgEICAAAKCQAAKCQAAKCQAACAQgIAAArtnXsAOA33QbPOPAeDXcsZAAAoJAAAoJAAAIBCAgAACgkAACgkAACgkAAAgEKeA8Bu5z5qgCVwBgAACgkAACgkAACgkAAAgEICAAAKCQAAKCQAAKCQAGDZDs89AKypZ+YegM0mAFi2x+YeANbUo3MPwGYTACzb3XMPAGvqrrkHYLOdMfcAbLwrktybZM/cg8Aa2UryI0n+c+5B2FzOALBs9yW5fe4hYM28Lw7+LJkzAKzCviR3JLlm7kFgDdyT5Pokz889CJvNaVlWYSvJB5Ocn+SqOPMEL2UryaEkvxYHf1bAGQBW7fIkNyS5NslFSQ7MOg3M69kkj2RY8PcXcdofAAAAAAAAAAAAAAAAAAAAAAAAAAAAAAAAAAAAAAAAAAAAAAAAAAAAAAAAAAAAAAAAAAAAAAAAAAAAAAAAAAAAAAAAAAAAAAAAAAAAAAAAAAAAAAAAAAAAAAAAAAAAAAB2vf8H6bQ2tw0DLbIAAAAASUVORK5CYII=" parent="1" vertex="1">
                    <mxGeometry x="560" y="540" width="82" height="72" as="geometry"/>
                </mxCell>
                <mxCell id="13" value="&lt;font style=&quot;font-size: 15px&quot;&gt;Distribute global parameter&lt;/font&gt;" style="edgeLabel;html=1;align=center;verticalAlign=middle;resizable=0;points=[];rotation=-90;" parent="1" vertex="1" connectable="0">
                    <mxGeometry x="99.99604160273759" y="419.99910023371353" as="geometry"/>
                </mxCell>
                <mxCell id="14" value="&lt;span style=&quot;font-size: 15px&quot;&gt;Synthesize parameter of base layers&lt;/span&gt;" style="text;html=1;align=left;verticalAlign=middle;resizable=0;points=[];autosize=1;strokeColor=none;fillColor=none;" parent="1" vertex="1">
                    <mxGeometry x="280" y="255" width="260" height="20" as="geometry"/>
                </mxCell>
                <mxCell id="15" value="&lt;font style=&quot;font-size: 15px&quot;&gt;Train model using Meta-learning algorithms&lt;br&gt;Send base layers to server&lt;br&gt;Store personalization layers&lt;br&gt;&lt;/font&gt;" style="text;html=1;align=left;verticalAlign=middle;resizable=0;points=[];autosize=1;strokeColor=none;fillColor=none;" parent="1" vertex="1">
                    <mxGeometry x="280" y="460" width="300" height="50" as="geometry"/>
                </mxCell>
            </root>
        </mxGraphModel>
    </diagram>
</mxfile>